<?xml version="1.0" encoding="utf-8"?>
<!-- Generator: Adobe Illustrator 22.1.0, SVG Export Plug-In . SVG Version: 6.00 Build 0)  -->
<svg version="1.1" id="Layer_1" xmlns="http://www.w3.org/2000/svg" xmlns:xlink="http://www.w3.org/1999/xlink" x="0px" y="0px"
	 viewBox="0 0 2000 2000" style="enable-background:new 0 0 2000 2000;" xml:space="preserve">
<style type="text/css">
	.st0{opacity:0.75;fill:#181716;enable-background:new    ;}
	.st1{opacity:0.75;}
	.st2{fill:#181716;}
	.st3{fill:#FFFFFF;}
	.st4{fill:#CD1C20;}
</style>
<g id="Layer_3">
</g>
<g id="Foreshadow_Logo">
	<g>
		<polygon id="_x32_" class="st0" points="1734.7,797 1791,767 1811.9,824.6 1709.1,821.8 		"/>
		<polygon id="_x31_" class="st0" points="1703.5,703.8 1711.5,661.8 1764.6,671.6 1707.3,745.7 		"/>
		<g id="Shadow" class="st1">
			<path class="st2" d="M1808.7,888.1c-9-1.9-44.8-8.9-116.7-17.1l-31.4-3.6l25.2,109.5l-60,154.1l37.6,217.5l-71.9,138.5l139,83.4
				l-105.1,189.9l17.7,106.5l-4.3,87.9c55.7-5.5,152.8-39.2,183.2-53.6c21.9-10.3,34.9-25.5,34.9-46.8V937.3
				C1857,911.1,1837.4,893.4,1808.7,888.1z"/>
			<path class="st2" d="M1670.8,609.6c-0.2-142.6-44.7-262-128.6-345.4c-39.3-39.2-86.3-69.4-139.6-89.9
				c-52.2-20-109.3-30.2-169.4-30.2c-53.1,0-103.9,10.1-151,28.5c17.5,24,66.5,118.9,73.1,141.7c17.3-2.9,61-15.2,79.6-15.3
				c83.3-0.7,149.8,23,197.7,70.6c53.8,53.3,82.2,136.1,82.2,239.5l0.6,49.2c0.4,26.5,21.3,47.7,47.7,48.3
				c16.3,0.4,39.5,1.1,57.5,1.6c13.4,0.4,26-4.6,35.6-13.9c9.6-9.3,14.9-21.9,14.7-35.3L1670.8,609.6z"/>
			<path class="st2" d="M1606.9,1582.2l-110.1-116.1l76.7-139.2l-42.1-169.2l64-156.2l-54.2-91.4v-52.7l-20.4-1.8
				c-51.4-4.4-88.2-8.9-152.2-12c-2.5,5,5,835.8-2,849c-12.1,20.1-290.7,137.8-757.1,93.1v61.5c0,21.4,14.1,40.3,35.1,46.8
				c144.7,45.8,281.4,74.6,417.9,88.1c58.5,5.8,116.2,8.6,173.8,8.6c82.7,0,165.1-5.9,248.9-17.9l12.1-1.7l31.4-69.3l-15.8-150.7
				L1606.9,1582.2z"/>
			<path class="st2" d="M942.6,692.2c1.6-0.2,3.4-0.4,5-0.6l1-82.2v-0.2v-0.2c-1.1-91.9,28.6-173.4,83.4-229.3
				c4.1-4.1,20.5-15.1,24.8-18.9c-3.8-16.3-58.3-99.6-77.8-129.6c-110.8,84.6-183.3,222.7-183.3,378.6l0.4,74.4
				C844.4,691.2,892.5,697.7,942.6,692.2z"/>
		</g>
		<path class="st3" d="M1341.5,732.5c0,0-61.3-7.9-158.5-16.8l0.5-238.1c-0.5-289.3-187-444.9-416.8-444.9S349.9,232.2,349.9,477.6
			l1.1,229.1c-56.1,6.3-109.8,14.8-159.1,25.8c-16.3,3.6-28.7,10.2-28.7,22.8v12.4v753.3v159.8c0,11.7,7.9,22.1,19.6,25.7
			c386,122.2,755.4,133.5,1168.2,0.1c11.7-3.7,19.5-14.1,19.5-25.7V1521V767.6v-12.4C1370.2,742.6,1357.4,732.5,1341.5,732.5z
			 M768.1,143.3c195-1.8,303.6,126.1,303.6,333.7v229.5c-173.1-12.8-404.3-23-615.3-9l2.1-220.4
			C456.3,289.7,573.4,145.1,768.1,143.3z"/>
		<g id="Lock">
			<path class="st4" d="M1388.9,756.7v-0.7c0-23.6-21.4-42.8-48-43.5c-8.4-1.1-59.3-7.4-137.2-14.7l0.5-218.4
				c-0.2-142.6-44.7-262-128.6-345.4C1036.3,94.7,989.3,64.5,936,44c-52.2-20.1-109.1-30.3-169.3-30.3
				c-241.3,0-437.6,208.8-437.6,465.6v0.1l1.3,209.8c-51.5,6.4-98.6,14.3-141,23.7c-11.7,2.6-21,6.4-27.9,11.4
				c-11,7.8-17,19.1-17,31.6v0.8c-1.1,4.2-1.4,8.1-1.4,11.5v909.6c0,21.4,14.1,40.3,35.1,46.8c200.8,63.6,390.1,95.3,578.5,96.6
				c4.4,0,8.7,0,13.1,0c193.1,0,385-31.6,585.9-96.6l0,0c20.8-6.7,34.9-25.5,34.9-46.8V768.3
				C1390.4,764.3,1389.9,760.4,1388.9,756.7z M187.7,768.3v-0.1c0.6-0.6,3.5-3,12.1-5.3c60-16.1,130.4-28.2,209.6-36.3
				c0.2,0,55.6-5.2,62.5-5.5c130.5-9.6,281.9-9.5,450,0.6c230.4,13.8,412.4,41.5,414.2,41.7l1.7,0.2h1.7c3.7,0,6.4,2.5,6.4,4.7
				v750.9c-0.6,0.4-1.4,0.7-2.5,1c-389.2,105.4-755.5,105.4-1153.1-0.1c-1.1-0.2-1.9-0.6-2.5-1L187.7,768.3L187.7,768.3z M944,678.3
				c-6.4-0.4-12.7-0.8-19.1-1.2c-136.6-8.1-263.2-9.9-376.3-5.3c-23.6,1-46.6,2.3-69.1,3.8l2.6-196.6c0-0.2,0-0.4,0-0.6
				c-1.1-91.9,28.6-173.4,83.4-229.3c50.9-52,121.1-79.8,203-80.5c83.3-0.7,149.8,23,197.7,70.6c53.8,53.3,82.2,136.1,82.2,239.5
				v206.1C1015.2,682.4,980.4,680.2,944,678.3z M375.1,681.3l-1.2-202.1c0-232.1,176.2-420.9,392.9-420.9
				c238.2,0,392.5,165.2,392.9,420.9l-0.5,203.3c-8.6-0.2-19.5-0.6-32.7-1c-11.9-0.4-23.8-0.6-33.5-0.8v-202
				c0-115.6-32.9-209.4-95.4-271.3c-27.9-27.7-61.6-48.8-99.9-62.9c-38.6-14.1-82.2-21.1-129.6-20.6c-93.9,0.8-175,33.3-234.4,93.9
				c-63.1,64.5-97.3,157-96.1,260.8L434.8,679c-11.5,0.8-22.8,1.8-33.8,2.8C391.7,681.5,382.7,681.4,375.1,681.3z M1341.8,1682.4
				c-388.2,125.4-753.7,125.4-1150.3-0.1c-2.3-0.7-4-2.5-4-4.3v-115.4c197.5,51.8,383.6,77.5,569,78.7c4.3,0,8.7,0,13.1,0
				c189.9,0,378.6-25.8,576.1-78.6v115.4C1345.8,1679.9,1344.1,1681.6,1341.8,1682.4z"/>
			<path class="st4" d="M766.7,1017.6c-59.9,0-108.6,50.8-108.6,113.5c0,47,27.3,87.2,66.1,104.5l-30.2,145.1h150.1l-29-148.1
				c35.6-18.7,59.9-57,59.9-101.5C875.3,1068.4,826.6,1017.6,766.7,1017.6z"/>
		</g>
	</g>
</g>
</svg>
