<svg xmlns="http://www.w3.org/2000/svg" viewBox="0 0 337.53 315.97"><defs><style>.a{fill:#482e90;}</style></defs><title>mds</title><path class="a" d="M220.16,108.32l-8.35.07V142c.81,0,2.14,0,4,0l4.36,0c3.69,0,6.23-1.17,7.59-3.53s2.06-6.79,2.06-13.32-.69-11-2.06-13.35S223.85,108.32,220.16,108.32Z"/><path class="a" d="M284.45,104.55A3.55,3.55,0,0,0,288,101V97.1a3.55,3.55,0,0,0-3.55-3.56H249.71V89.31A12.28,12.28,0,0,0,237.44,77h-3.78V42.31a3.55,3.55,0,0,0-3.55-3.56h-3.9a3.55,3.55,0,0,0-3.55,3.56V77H204V42.31a3.55,3.55,0,0,0-3.55-3.56h-3.9A3.55,3.55,0,0,0,193,42.31V77H174.27V42.31a3.56,3.56,0,0,0-3.56-3.56h-3.89a3.56,3.56,0,0,0-3.56,3.56V77h-32L120.17,99.52l5,18.11L113.1,141.25l14,26.37-14.88,19.56,19.91,19.65-11.91,18.8,1.82,13.3h11.57v34.74a3.55,3.55,0,0,0,3.56,3.55H141a3.55,3.55,0,0,0,3.55-3.55V238.93h18.69v34.74a3.55,3.55,0,0,0,3.56,3.55h3.89a3.55,3.55,0,0,0,3.56-3.55V238.93H193v34.74a3.55,3.55,0,0,0,3.55,3.55h3.9a3.55,3.55,0,0,0,3.55-3.55V238.93h18.7v34.74a3.55,3.55,0,0,0,3.55,3.55h3.9a3.55,3.55,0,0,0,3.55-3.55V238.93h3.78a12.27,12.27,0,0,0,12.27-12.27v-3.32h34.74a3.55,3.55,0,0,0,3.55-3.56v-3.89a3.55,3.55,0,0,0-3.55-3.56H249.71V193.64h34.74a3.55,3.55,0,0,0,3.55-3.55v-3.9a3.55,3.55,0,0,0-3.55-3.56H249.71V163.94h34.74a3.55,3.55,0,0,0,3.55-3.55v-3.9a3.55,3.55,0,0,0-3.55-3.55H249.71V134.25h34.74a3.56,3.56,0,0,0,3.55-3.56v-3.9a3.55,3.55,0,0,0-3.55-3.55H249.71V104.55ZM173.2,215a21,21,0,0,1-29.81-4.21,19.29,19.29,0,0,1-3.51-14.46c.75-6.12,3.76-11.17,7.33-16,3.81-5.15,7.87-10.13,11.12-15.67.68-1.16,1.34-2.34,2.08-3.64,1.91,3.24,3.84,6.28,5.85,9.27,3.53,5.26,7.35,10.33,10.55,15.82,2,3.39,3.72,6.9,4.13,10.87A19,19,0,0,1,173.2,215Zm6.13-64.87L177.68,109h-1.23L169,139.71c-.48,2.36-2,3.53-4.47,3.53h-7.2c-2.49,0-4-1.17-4.46-3.53L145.28,109h-1.23l-1.44,41.11H132.25l1.8-45.57q.21-4.11,4.1-4.11h10.58a4,4,0,0,1,4.32,3.53l6,24.77q.59,2.37,1.3,7h.93c0-.24.23-1.22.54-3s.57-3.07.76-4l6-24.77a4.18,4.18,0,0,1,4.46-3.53h10.58q4,0,4.11,4.11l1.94,45.57Zm51.35,63.75c-2.69,2-7.48,3-14.4,3a80.29,80.29,0,0,1-17.06-1.87l.65-7.92q15.33.36,16.41.36,4.4,0,5.87-.93c1-.63,1.48-1.92,1.48-3.89a5.09,5.09,0,0,0-1-3.57,9.16,9.16,0,0,0-3.67-1.9l-10-3.53q-5.55-2-7.92-5.47a15.77,15.77,0,0,1-2.38-9.08q0-8.2,4-11t14.08-2.77a60.12,60.12,0,0,1,16.34,2l-.72,7.48q-6.27-.21-15.55-.21-4.32,0-5.76.75T209.59,179a4.84,4.84,0,0,0,1.08,3.53,11,11,0,0,0,4.1,2.09l9.43,3.24q5.76,2,8.14,5.51a15.92,15.92,0,0,1,2.38,9.11Q234.72,210.85,230.68,213.83Zm6-68.57q-4.63,5.48-16.52,5.47-9.07,0-19.3-.65V100.4q10.23-.65,19.3-.65,11.88,0,16.52,5.48t4.65,20Q241.33,139.79,236.68,145.26Z"/><path class="a" d="M99.52,185.73l12.09-18.57-7.81-23.39,5.58-25.45-8.19-15.82L107.78,77h-7.69A12.27,12.27,0,0,0,87.82,89.31v3.78H53.08a3.55,3.55,0,0,0-3.55,3.55v3.9a3.56,3.56,0,0,0,3.55,3.56H87.82v18.69H53.08a3.55,3.55,0,0,0-3.55,3.55v3.9a3.55,3.55,0,0,0,3.55,3.55H87.82v18.69H53.08A3.56,3.56,0,0,0,49.53,156v3.9a3.55,3.55,0,0,0,3.55,3.55H87.82v18.69H53.08a3.55,3.55,0,0,0-3.55,3.56v3.89a3.55,3.55,0,0,0,3.55,3.56H87.82v18.69H53.08a3.55,3.55,0,0,0-3.55,3.55v3.9a3.56,3.56,0,0,0,3.55,3.56H87.82v3.77a12.27,12.27,0,0,0,12.27,12.27h11.16l-3.55-15.59,8.19-17.43Z"/><path class="a" d="M123.26,53.09,131.55,58l-.38-8.87s1.7,2,3.85,4.57L123.52,18a3.55,3.55,0,0,0-4.47-2.3l-3.71,1.19a3.57,3.57,0,0,0-2.3,4.48Z"/><path class="a" d="M60.26,44.4,82.31,58.45l-1.64-2.38L95.79,60l-1.37-4.78,2.34-.61L66.18,35.12a3.55,3.55,0,0,0-4.91,1.09l-2.1,3.28A3.57,3.57,0,0,0,60.26,44.4Z"/><path class="a" d="M227.75,138.56c-1.36,2.36-3.9,3.53-7.59,3.53l-4.36,0c-1.85,0-3.18,0-4,0V108.39l8.35-.07c3.69,0,6.23,1.19,7.59,3.57s2.06,6.83,2.06,13.35S229.12,136.21,227.75,138.56Z"/><path class="a" d="M107.42,256.87l-5.64,5.29.09-8-5,5.72-3.58,2.44L86,275.74a3.55,3.55,0,0,0,1.43,4.82l3.43,1.86A3.56,3.56,0,0,0,95.69,281L108,258.31Z"/></svg>