<?xml version="1.0" encoding="UTF-8" standalone="no"?>
<!-- Created with Inkscape (http://www.inkscape.org/) -->

<svg
   xmlns:dc="http://purl.org/dc/elements/1.1/"
   xmlns:cc="http://creativecommons.org/ns#"
   xmlns:rdf="http://www.w3.org/1999/02/22-rdf-syntax-ns#"
   xmlns:svg="http://www.w3.org/2000/svg"
   xmlns="http://www.w3.org/2000/svg"
   xmlns:sodipodi="http://sodipodi.sourceforge.net/DTD/sodipodi-0.dtd"
   xmlns:inkscape="http://www.inkscape.org/namespaces/inkscape"
   width="161.55963mm"
   height="40.445229mm"
   viewBox="0 0 161.55963 40.445229"
   version="1.1"
   id="svg8"
   inkscape:version="0.92.3 (2405546, 2018-03-11)"
   sodipodi:docname="pte-pk.svg">
  <defs
     id="defs2" />
  <sodipodi:namedview
     id="base"
     pagecolor="#ffffff"
     bordercolor="#666666"
     borderopacity="1.0"
     inkscape:pageopacity="0.0"
     inkscape:pageshadow="2"
     inkscape:zoom="1.4"
     inkscape:cx="287.64655"
     inkscape:cy="108.88305"
     inkscape:document-units="mm"
     inkscape:current-layer="layer1"
     showgrid="false"
     fit-margin-top="0"
     fit-margin-left="0"
     fit-margin-right="0"
     fit-margin-bottom="0"
     inkscape:window-width="1920"
     inkscape:window-height="1135"
     inkscape:window-x="1920"
     inkscape:window-y="0"
     inkscape:window-maximized="1" />
  <metadata
     id="metadata5">
    <rdf:RDF>
      <cc:Work
         rdf:about="">
        <dc:format>image/svg+xml</dc:format>
        <dc:type
           rdf:resource="http://purl.org/dc/dcmitype/StillImage" />
        <dc:title></dc:title>
      </cc:Work>
    </rdf:RDF>
  </metadata>
  <g
     inkscape:label="Layer 1"
     inkscape:groupmode="layer"
     id="layer1"
     transform="translate(-22.805953,-135.32389)">
    <path
       style="opacity:1;fill:#f1f1f1;fill-opacity:1;fill-rule:nonzero;stroke:#000000;stroke-width:0.303;stroke-miterlimit:4;stroke-dasharray:none;stroke-opacity:1"
       d="M 22.957453,135.47539 H 184.21409 v 40.14222 H 22.957453 Z"
       id="rect826" />
    <path
       style="opacity:1;fill:none;fill-opacity:0.49090911;fill-rule:nonzero;stroke:#000000;stroke-width:0.303;stroke-miterlimit:4;stroke-dasharray:none;stroke-opacity:1"
       d="M 22.964788,135.48273 H 33.0829 v 9.96812 H 22.964788 Z"
       id="rect828" />
    <path
       style="opacity:1;fill:none;fill-opacity:0.49090911;fill-rule:nonzero;stroke:#000000;stroke-width:0.303;stroke-miterlimit:4;stroke-dasharray:none;stroke-opacity:1"
       d="m 33.082893,135.48273 h 10.118112 v 9.96812 H 33.082893 Z"
       id="rect828-3" />
    <path
       style="opacity:1;fill:none;fill-opacity:0.49090911;fill-rule:nonzero;stroke:#000000;stroke-width:0.303;stroke-miterlimit:4;stroke-dasharray:none;stroke-opacity:1"
       d="m 43.201008,135.48273 h 10.118111 v 9.96812 H 43.201008 Z"
       id="rect828-6" />
    <path
       style="opacity:1;fill:none;fill-opacity:0.49090911;fill-rule:nonzero;stroke:#000000;stroke-width:0.303;stroke-miterlimit:4;stroke-dasharray:none;stroke-opacity:1"
       d="m 53.319118,135.48273 h 10.118113 v 9.96812 H 53.319118 Z"
       id="rect828-6-7" />
    <path
       style="opacity:1;fill:none;fill-opacity:0.49090911;fill-rule:nonzero;stroke:#000000;stroke-width:0.303;stroke-miterlimit:4;stroke-dasharray:none;stroke-opacity:1"
       d="m 63.437233,135.48273 h 10.118113 v 9.96812 H 63.437233 Z"
       id="rect828-6-5" />
    <path
       style="opacity:1;fill:none;fill-opacity:0.49090911;fill-rule:nonzero;stroke:#000000;stroke-width:0.303;stroke-miterlimit:4;stroke-dasharray:none;stroke-opacity:1"
       d="m 73.555344,135.48273 h 10.118112 v 9.96812 H 73.555344 Z"
       id="rect828-6-3" />
    <path
       style="opacity:1;fill:none;fill-opacity:0.49090911;fill-rule:nonzero;stroke:#000000;stroke-width:0.303;stroke-miterlimit:4;stroke-dasharray:none;stroke-opacity:1"
       d="m 83.673454,135.48273 h 10.118113 v 9.96812 H 83.673454 Z"
       id="rect828-6-56" />
    <path
       style="opacity:1;fill:#e6e6e6;fill-opacity:0.49090911;fill-rule:nonzero;stroke:#000000;stroke-width:0.303;stroke-miterlimit:4;stroke-dasharray:none;stroke-opacity:1"
       d="m 93.791565,135.48273 h 10.118115 v 9.96812 H 93.791565 Z"
       id="rect828-6-2" />
    <path
       style="opacity:1;fill:#e6e6e6;fill-opacity:0.49090911;fill-rule:nonzero;stroke:#000000;stroke-width:0.303;stroke-miterlimit:4;stroke-dasharray:none;stroke-opacity:1"
       d="m 103.90968,135.48273 h 10.11812 v 9.96812 h -10.11812 z"
       id="rect828-6-9" />
    <path
       style="opacity:1;fill:#e6e6e6;fill-opacity:0.49090911;fill-rule:nonzero;stroke:#000000;stroke-width:0.303;stroke-miterlimit:4;stroke-dasharray:none;stroke-opacity:1"
       d="m 174.09598,165.64949 h 10.11811 v 9.96812 h -10.11811 z"
       id="rect828-6-1" />
    <path
       style="opacity:1;fill:#e6e6e6;fill-opacity:0.49090911;fill-rule:nonzero;stroke:#000000;stroke-width:0.303;stroke-miterlimit:4;stroke-dasharray:none;stroke-opacity:1"
       d="m 114.02779,135.48273 h 29.89605 v 9.96812 h -29.89605 z"
       id="rect828-6-27" />
    <path
       style="opacity:1;fill:#00ff00;fill-opacity:0.49090911;fill-rule:nonzero;stroke:#000000;stroke-width:0.303;stroke-miterlimit:4;stroke-dasharray:none;stroke-opacity:1"
       d="m 133.90007,165.64949 h 40.19591 v 9.96812 h -40.19591 z"
       id="rect828-6-27-0" />
    <path
       style="opacity:1;fill:#e6e6e6;fill-opacity:0.49090911;fill-rule:nonzero;stroke:#000000;stroke-width:0.303;stroke-miterlimit:4;stroke-dasharray:none;stroke-opacity:1"
       d="m 63.111774,165.64949 h 70.788296 v 9.96812 H 63.111774 Z"
       id="rect828-6-27-9" />
    <g
       aria-label="Physical Page Number"
       transform="matrix(0.19554095,0,0,0.19554095,22.313683,40.648624)"
       style="font-style:normal;font-weight:normal;font-size:40px;line-height:1.25;font-family:sans-serif;letter-spacing:0px;word-spacing:0px;fill:#000000;fill-opacity:1;stroke:none;stroke-width:1.14519691;stroke-miterlimit:4;stroke-dasharray:none"
       id="flowRoot929">
      <path
         d="m 198.58594,572.70703 v 10.95703 h 4.96093 q 2.75391,0 4.25782,-1.42578 1.5039,-1.42578 1.5039,-4.0625 0,-2.61719 -1.5039,-4.04297 -1.50391,-1.42578 -4.25782,-1.42578 z m -3.94532,-3.24219 h 8.90625 q 4.90235,0 7.40235,2.22657 2.51953,2.20703 2.51953,6.48437 0,4.31641 -2.51953,6.52344 -2.5,2.20703 -7.40235,2.20703 h -4.96093 V 598.625 h -3.94532 z"
         id="path870"
         inkscape:connector-curvature="0" />
      <path
         d="M 236.80859,585.42187 V 598.625 h -3.59375 v -13.08594 q 0,-3.10547 -1.21093,-4.64844 -1.21094,-1.54296 -3.63282,-1.54296 -2.91015,0 -4.58984,1.85546 -1.67969,1.85547 -1.67969,5.0586 V 598.625 h -3.61328 v -30.39063 h 3.61328 v 11.91407 q 1.28906,-1.97266 3.02735,-2.94922 1.75781,-0.97656 4.04296,-0.97656 3.76954,0 5.70313,2.34375 1.93359,2.32421 1.93359,6.85546 z"
         id="path872"
         inkscape:connector-curvature="0" />
      <path
         d="m 253.11719,600.65625 q -1.52344,3.90625 -2.96875,5.09766 -1.44532,1.1914 -3.86719,1.1914 h -2.87109 v -3.00781 h 2.10937 q 1.48438,0 2.30469,-0.70313 0.82031,-0.70312 1.8164,-3.32031 l 0.64454,-1.64062 L 241.4375,576.75 h 3.80859 l 6.83594,17.10937 6.83594,-17.10937 h 3.80859 z"
         id="path874"
         inkscape:connector-curvature="0" />
      <path
         d="m 281.63281,577.39453 v 3.39844 q -1.52344,-0.78125 -3.16406,-1.17188 -1.64063,-0.39062 -3.39844,-0.39062 -2.67578,0 -4.02344,0.82031 -1.32812,0.82031 -1.32812,2.46094 0,1.25 0.95703,1.97265 0.95703,0.70313 3.84766,1.34766 l 1.23047,0.27344 q 3.82812,0.82031 5.42968,2.32422 1.6211,1.48437 1.6211,4.16015 0,3.04688 -2.42188,4.82422 -2.40234,1.77735 -6.62109,1.77735 -1.75781,0 -3.67188,-0.35157 -1.89453,-0.33203 -4.0039,-1.01562 v -3.71094 q 1.99218,1.03516 3.92578,1.5625 1.93359,0.50781 3.82812,0.50781 2.53907,0 3.90625,-0.85937 1.36719,-0.87891 1.36719,-2.46094 0,-1.46484 -0.99609,-2.24609 -0.97657,-0.78125 -4.31641,-1.50391 l -1.25,-0.29297 q -3.33984,-0.70312 -4.82422,-2.14844 -1.48437,-1.46484 -1.48437,-4.0039 0,-3.08594 2.1875,-4.76563 2.1875,-1.67968 6.21093,-1.67968 1.99219,0 3.75,0.29296 1.75782,0.29297 3.24219,0.87891 z"
         id="path876"
         inkscape:connector-curvature="0" />
      <path
         d="m 288.54687,576.75 h 3.59375 v 21.875 h -3.59375 z m 0,-8.51563 h 3.59375 v 4.55079 h -3.59375 z"
         id="path878"
         inkscape:connector-curvature="0" />
      <path
         d="m 315.38281,577.58984 v 3.35938 q -1.52344,-0.83985 -3.0664,-1.25 -1.52344,-0.42969 -3.08594,-0.42969 -3.4961,0 -5.42969,2.22656 -1.93359,2.20703 -1.93359,6.21094 0,4.00391 1.93359,6.23047 1.93359,2.20703 5.42969,2.20703 1.5625,0 3.08594,-0.41016 1.54296,-0.42968 3.0664,-1.26953 v 3.32032 q -1.5039,0.70312 -3.125,1.05468 -1.60156,0.35157 -3.41797,0.35157 -4.9414,0 -7.85156,-3.10547 -2.91016,-3.10547 -2.91016,-8.37891 0,-5.35156 2.92969,-8.41797 2.94922,-3.0664 8.06641,-3.0664 1.66015,0 3.24219,0.35156 1.58203,0.33203 3.0664,1.01562 z"
         id="path880"
         inkscape:connector-curvature="0" />
      <path
         d="m 331.61328,587.62891 q -4.35547,0 -6.03516,0.99609 -1.67968,0.99609 -1.67968,3.39844 0,1.91406 1.25,3.04687 1.26953,1.11328 3.4375,1.11328 2.98828,0 4.78515,-2.10937 1.81641,-2.12891 1.81641,-5.64453 v -0.80078 z m 7.16797,-1.48438 V 598.625 h -3.59375 v -3.32031 q -1.23047,1.99218 -3.06641,2.94922 -1.83593,0.9375 -4.49218,0.9375 -3.35938,0 -5.35157,-1.875 -1.97265,-1.89454 -1.97265,-5.0586 0,-3.6914 2.46093,-5.5664 2.48047,-1.875 7.38282,-1.875 h 5.03906 v -0.35157 q 0,-2.48047 -1.64063,-3.82812 -1.62109,-1.36719 -4.57031,-1.36719 -1.875,0 -3.65234,0.44922 -1.77735,0.44922 -3.41797,1.34766 v -3.32032 q 1.97266,-0.76172 3.82812,-1.13281 1.85547,-0.39062 3.61329,-0.39062 4.74609,0 7.08984,2.46093 2.34375,2.46094 2.34375,7.46094 z"
         id="path882"
         inkscape:connector-curvature="0" />
      <path
         d="m 346.20312,568.23437 h 3.59375 V 598.625 h -3.59375 z"
         id="path884"
         inkscape:connector-curvature="0" />
      <path
         d="m 374.13281,572.70703 v 10.95703 h 4.96094 q 2.75391,0 4.25781,-1.42578 1.50391,-1.42578 1.50391,-4.0625 0,-2.61719 -1.50391,-4.04297 -1.5039,-1.42578 -4.25781,-1.42578 z m -3.94531,-3.24219 h 8.90625 q 4.90234,0 7.40234,2.22657 2.51953,2.20703 2.51953,6.48437 0,4.31641 -2.51953,6.52344 -2.5,2.20703 -7.40234,2.20703 h -4.96094 V 598.625 h -3.94531 z"
         id="path886"
         inkscape:connector-curvature="0" />
      <path
         d="m 402.31641,587.62891 q -4.35547,0 -6.03516,0.99609 -1.67969,0.99609 -1.67969,3.39844 0,1.91406 1.25,3.04687 1.26953,1.11328 3.4375,1.11328 2.98828,0 4.78516,-2.10937 1.8164,-2.12891 1.8164,-5.64453 v -0.80078 z m 7.16796,-1.48438 V 598.625 h -3.59375 v -3.32031 q -1.23046,1.99218 -3.0664,2.94922 -1.83594,0.9375 -4.49219,0.9375 -3.35937,0 -5.35156,-1.875 -1.97266,-1.89454 -1.97266,-5.0586 0,-3.6914 2.46094,-5.5664 2.48047,-1.875 7.38281,-1.875 h 5.03906 v -0.35157 q 0,-2.48047 -1.64062,-3.82812 -1.62109,-1.36719 -4.57031,-1.36719 -1.875,0 -3.65235,0.44922 -1.77734,0.44922 -3.41797,1.34766 v -3.32032 q 1.97266,-0.76172 3.82813,-1.13281 1.85547,-0.39062 3.61328,-0.39062 4.74609,0 7.08984,2.46093 2.34375,2.46094 2.34375,7.46094 z"
         id="path888"
         inkscape:connector-curvature="0" />
      <path
         d="m 431.30078,587.43359 q 0,-3.90625 -1.62109,-6.05468 -1.60157,-2.14844 -4.51172,-2.14844 -2.89063,0 -4.51172,2.14844 -1.60156,2.14843 -1.60156,6.05468 0,3.88672 1.60156,6.03516 1.62109,2.14844 4.51172,2.14844 2.91015,0 4.51172,-2.14844 1.62109,-2.14844 1.62109,-6.03516 z m 3.59375,8.47657 q 0,5.58593 -2.48047,8.30078 -2.48047,2.73437 -7.59765,2.73437 -1.89454,0 -3.57422,-0.29297 -1.67969,-0.27343 -3.26172,-0.85937 v -3.4961 q 1.58203,0.85938 3.125,1.26954 1.54297,0.41015 3.14453,0.41015 3.53516,0 5.29297,-1.85547 1.75781,-1.83593 1.75781,-5.5664 v -1.77735 q -1.11328,1.9336 -2.85156,2.89063 -1.73828,0.95703 -4.16016,0.95703 -4.02344,0 -6.48437,-3.06641 -2.46094,-3.0664 -2.46094,-8.125 0,-5.07812 2.46094,-8.14453 2.46093,-3.0664 6.48437,-3.0664 2.42188,0 4.16016,0.95703 1.73828,0.95703 2.85156,2.89062 V 576.75 h 3.59375 z"
         id="path890"
         inkscape:connector-curvature="0" />
      <path
         d="m 461.00781,586.78906 v 1.75781 h -16.52344 q 0.23438,3.71094 2.22657,5.66407 2.01172,1.93359 5.58593,1.93359 2.07032,0 4.00391,-0.50781 1.95313,-0.50781 3.86719,-1.52344 v 3.39844 q -1.9336,0.82031 -3.96485,1.25 -2.03125,0.42969 -4.12109,0.42969 -5.23437,0 -8.30078,-3.04688 -3.04688,-3.04687 -3.04688,-8.24219 0,-5.37109 2.89063,-8.51562 2.91016,-3.16406 7.83203,-3.16406 4.41406,0 6.97266,2.85156 2.57812,2.83203 2.57812,7.71484 z m -3.59375,-1.05469 q -0.0391,-2.94921 -1.66015,-4.70703 -1.60157,-1.75781 -4.25782,-1.75781 -3.00781,0 -4.82422,1.69922 -1.79687,1.69922 -2.07031,4.78516 z"
         id="path892"
         inkscape:connector-curvature="0" />
      <path
         d="m 479.79687,569.46484 h 5.3125 l 12.92969,24.39453 v -24.39453 h 3.82813 V 598.625 h -5.3125 L 483.625,574.23047 V 598.625 h -3.82813 z"
         id="path894"
         inkscape:connector-curvature="0" />
      <path
         d="M 509.19141,589.99219 V 576.75 h 3.59375 v 13.10547 q 0,3.10547 1.21093,4.66797 1.21094,1.54297 3.63282,1.54297 2.91015,0 4.58984,-1.85547 1.69922,-1.85547 1.69922,-5.0586 V 576.75 h 3.59375 v 21.875 h -3.59375 v -3.35938 q -1.3086,1.99219 -3.04688,2.96875 -1.71875,0.95704 -4.0039,0.95704 -3.76953,0 -5.72266,-2.34375 -1.95312,-2.34375 -1.95312,-6.85547 z m 9.04296,-13.76953 z"
         id="path896"
         inkscape:connector-curvature="0" />
      <path
         d="m 551.98437,580.94922 q 1.34766,-2.42188 3.22266,-3.57422 1.875,-1.15234 4.41406,-1.15234 3.41797,0 5.27344,2.40234 1.85547,2.38281 1.85547,6.79687 V 598.625 h -3.61328 v -13.08594 q 0,-3.14453 -1.11328,-4.66797 -1.11328,-1.52343 -3.39844,-1.52343 -2.79297,0 -4.41406,1.85546 -1.6211,1.85547 -1.6211,5.0586 V 598.625 h -3.61328 v -13.08594 q 0,-3.16406 -1.11328,-4.66797 -1.11328,-1.52343 -3.4375,-1.52343 -2.75391,0 -4.375,1.875 -1.62109,1.85546 -1.62109,5.03906 V 598.625 h -3.61328 V 576.75 h 3.61328 v 3.39844 q 1.23047,-2.01172 2.94922,-2.96875 1.71875,-0.95703 4.08203,-0.95703 2.38281,0 4.04297,1.21093 1.67968,1.21094 2.48046,3.51563 z"
         id="path898"
         inkscape:connector-curvature="0" />
      <path
         d="m 589.64062,587.70703 q 0,-3.96484 -1.64062,-6.21094 -1.62109,-2.26562 -4.47266,-2.26562 -2.85156,0 -4.49218,2.26562 -1.6211,2.2461 -1.6211,6.21094 0,3.96484 1.6211,6.23047 1.64062,2.24609 4.49218,2.24609 2.85157,0 4.47266,-2.24609 1.64062,-2.26563 1.64062,-6.23047 z m -12.22656,-7.63672 q 1.13281,-1.95312 2.85156,-2.89062 1.73829,-0.95703 4.14063,-0.95703 3.98437,0 6.46484,3.16406 2.5,3.16406 2.5,8.32031 0,5.15625 -2.5,8.32031 -2.48047,3.16407 -6.46484,3.16407 -2.40234,0 -4.14063,-0.9375 -1.71875,-0.95704 -2.85156,-2.91016 v 3.28125 h -3.61328 v -30.39063 h 3.61328 z"
         id="path900"
         inkscape:connector-curvature="0" />
      <path
         d="m 618.03906,586.78906 v 1.75781 h -16.52344 q 0.23438,3.71094 2.22657,5.66407 2.01172,1.93359 5.58593,1.93359 2.07032,0 4.00391,-0.50781 1.95313,-0.50781 3.86719,-1.52344 v 3.39844 q -1.9336,0.82031 -3.96485,1.25 -2.03125,0.42969 -4.12109,0.42969 -5.23437,0 -8.30078,-3.04688 -3.04688,-3.04687 -3.04688,-8.24219 0,-5.37109 2.89063,-8.51562 2.91016,-3.16406 7.83203,-3.16406 4.41406,0 6.97266,2.85156 2.57812,2.83203 2.57812,7.71484 z m -3.59375,-1.05469 q -0.0391,-2.94921 -1.66015,-4.70703 -1.60157,-1.75781 -4.25782,-1.75781 -3.00781,0 -4.82422,1.69922 -1.79687,1.69922 -2.07031,4.78516 z"
         id="path902"
         inkscape:connector-curvature="0" />
      <path
         d="m 636.61328,580.10937 q -0.60547,-0.35156 -1.32812,-0.50781 -0.70313,-0.17578 -1.5625,-0.17578 -3.04688,0 -4.6875,1.99219 -1.6211,1.97265 -1.6211,5.68359 V 598.625 h -3.61328 V 576.75 h 3.61328 v 3.39844 q 1.13281,-1.99219 2.94922,-2.94922 1.81641,-0.97656 4.41406,-0.97656 0.3711,0 0.82032,0.0586 0.44921,0.0391 0.99609,0.13672 z"
         id="path904"
         inkscape:connector-curvature="0" />
    </g>
    <g
       aria-label="P"
       style="font-style:normal;font-weight:normal;font-size:5.64444447px;line-height:1.25;font-family:sans-serif;letter-spacing:0px;word-spacing:0px;fill:#000000;fill-opacity:1;stroke:none;stroke-width:0.303;stroke-miterlimit:4;stroke-dasharray:none"
       id="text939">
      <path
         d="m 27.252142,138.86689 v 1.54616 h 0.700043 q 0.388607,0 0.600825,-0.2012 0.212218,-0.20119 0.212218,-0.57326 0,-0.36932 -0.212218,-0.57051 -0.212218,-0.20119 -0.600825,-0.20119 z m -0.556727,-0.45751 h 1.25677 q 0.691776,0 1.044553,0.31419 0.355534,0.31144 0.355534,0.91502 0,0.60909 -0.355534,0.92053 -0.352777,0.31143 -1.044553,0.31143 h -0.700043 v 1.65365 h -0.556727 z"
         style="stroke-width:0.303;stroke-miterlimit:4;stroke-dasharray:none"
         id="path907" />
    </g>
    <g
       aria-label="RW"
       style="font-style:normal;font-weight:normal;font-size:5.64444447px;line-height:1.25;font-family:sans-serif;letter-spacing:0px;word-spacing:0px;fill:#000000;fill-opacity:1;stroke:none;stroke-width:0.303;stroke-miterlimit:4;stroke-dasharray:none"
       id="text939-3">
      <path
         d="m 35.825468,140.59495 q 0.179145,0.0606 0.347265,0.25907 0.170877,0.19844 0.341754,0.5457 l 0.564995,1.12448 h -0.598068 l -0.526411,-1.05558 q -0.203949,-0.41341 -0.396875,-0.54846 -0.190169,-0.13504 -0.520898,-0.13504 h -0.606337 v 1.73908 h -0.556727 v -4.11482 h 1.25677 q 0.705556,0 1.052822,0.2949 0.347265,0.2949 0.347265,0.89021 0,0.38861 -0.181901,0.64492 -0.179145,0.25632 -0.523654,0.35554 z m -1.394575,-1.72806 v 1.46072 h 0.700043 q 0.402388,0 0.606337,-0.18466 0.206706,-0.18741 0.206706,-0.54846 0,-0.36104 -0.206706,-0.54295 -0.203949,-0.18465 -0.606337,-0.18465 z"
         style="stroke-width:0.303;stroke-miterlimit:4;stroke-dasharray:none"
         id="path910" />
      <path
         d="m 37.20075,138.40938 h 0.562239 l 0.865408,3.47817 0.862652,-3.47817 h 0.62563 l 0.865408,3.47817 0.862652,-3.47817 h 0.564995 l -1.033528,4.11482 h -0.700044 l -0.868164,-3.57187 -0.876432,3.57187 h -0.700044 z"
         style="stroke-width:0.303;stroke-miterlimit:4;stroke-dasharray:none"
         id="path912" />
    </g>
    <g
       aria-label="US"
       style="font-style:normal;font-weight:normal;font-size:5.64444447px;line-height:1.25;font-family:sans-serif;letter-spacing:0px;word-spacing:0px;fill:#000000;fill-opacity:1;stroke:none;stroke-width:0.303;stroke-miterlimit:4;stroke-dasharray:none"
       id="text939-3-0">
      <path
         d="m 44.803944,138.40662 h 0.559483 v 2.49976 q 0,0.66146 0.239779,0.9536 0.239779,0.28939 0.777213,0.28939 0.534679,0 0.774458,-0.28939 0.239779,-0.29214 0.239779,-0.9536 v -2.49976 h 0.559483 v 2.56866 q 0,0.80477 -0.399631,1.21543 -0.396875,0.41065 -1.174089,0.41065 -0.779969,0 -1.1796,-0.41065 -0.396875,-0.41066 -0.396875,-1.21543 z"
         style="stroke-width:0.303;stroke-miterlimit:4;stroke-dasharray:none"
         id="path915" />
      <path
         d="m 51.468137,138.54166 v 0.54295 q -0.316949,-0.15158 -0.598069,-0.226 -0.28112,-0.0744 -0.542947,-0.0744 -0.454753,0 -0.7028,0.17639 -0.24529,0.17639 -0.24529,0.5016 0,0.27286 0.162608,0.41342 0.165365,0.1378 0.622873,0.22324 l 0.336242,0.0689 q 0.622873,0.11851 0.917773,0.41892 0.297656,0.29766 0.297656,0.79927 0,0.59806 -0.402387,0.90674 -0.399631,0.30868 -1.174088,0.30868 -0.292144,0 -0.622873,-0.0661 -0.327974,-0.0662 -0.680751,-0.19568 v -0.57327 q 0.338997,0.19017 0.664214,0.28664 0.325217,0.0965 0.63941,0.0965 0.476801,0 0.735872,-0.18741 0.259071,-0.18742 0.259071,-0.53468 0,-0.30317 -0.187413,-0.47405 -0.184657,-0.17088 -0.609093,-0.25631 l -0.338997,-0.0661 q -0.622873,-0.12402 -0.901237,-0.38861 -0.278364,-0.26458 -0.278364,-0.73587 0,-0.5457 0.383095,-0.85989 0.38585,-0.3142 1.061089,-0.3142 0.289388,0 0.589801,0.0524 0.300412,0.0524 0.614605,0.15709 z"
         style="stroke-width:0.303;stroke-miterlimit:4;stroke-dasharray:none"
         id="path917" />
    </g>
    <g
       aria-label="WT"
       style="font-style:normal;font-weight:normal;font-size:5.64444447px;line-height:1.25;font-family:sans-serif;letter-spacing:0px;word-spacing:0px;fill:#000000;fill-opacity:1;stroke:none;stroke-width:0.303;stroke-miterlimit:4;stroke-dasharray:none"
       id="text939-3-2">
      <path
         d="m 53.95054,138.40938 h 0.562239 l 0.865408,3.47817 0.862652,-3.47817 h 0.625629 l 0.865408,3.47817 0.862652,-3.47817 h 0.564996 l -1.033529,4.11482 h -0.700043 l -0.868164,-3.57187 -0.876432,3.57187 h -0.700044 z"
         style="stroke-width:0.303;stroke-miterlimit:4;stroke-dasharray:none"
         id="path920" />
      <path
         d="m 59.324888,138.40938 h 3.480925 v 0.46853 h -1.460721 v 3.64629 h -0.559483 v -3.64629 h -1.460721 z"
         style="stroke-width:0.303;stroke-miterlimit:4;stroke-dasharray:none"
         id="path922" />
    </g>
    <g
       aria-label="UC"
       style="font-style:normal;font-weight:normal;font-size:5.64444447px;line-height:1.25;font-family:sans-serif;letter-spacing:0px;word-spacing:0px;fill:#000000;fill-opacity:1;stroke:none;stroke-width:0.303;stroke-miterlimit:4;stroke-dasharray:none"
       id="text939-3-8">
      <path
         d="m 64.856892,138.40662 h 0.559483 v 2.49976 q 0,0.66146 0.239779,0.9536 0.239779,0.28939 0.777213,0.28939 0.534679,0 0.774458,-0.28939 0.239779,-0.29214 0.239779,-0.9536 v -2.49976 h 0.559483 v 2.56866 q 0,0.80477 -0.399631,1.21543 -0.396875,0.41065 -1.174089,0.41065 -0.779969,0 -1.1796,-0.41065 -0.396875,-0.41066 -0.396875,-1.21543 z"
         style="stroke-width:0.303;stroke-miterlimit:4;stroke-dasharray:none"
         id="path925" />
      <path
         d="m 72.13569,138.72357 v 0.58704 q -0.28112,-0.26183 -0.600825,-0.39136 -0.316949,-0.12954 -0.675239,-0.12954 -0.705555,0 -1.080382,0.43271 -0.374826,0.42994 -0.374826,1.24574 0,0.81304 0.374826,1.24575 0.374827,0.42995 1.080382,0.42995 0.35829,0 0.675239,-0.12954 0.319705,-0.12954 0.600825,-0.39136 v 0.58153 q -0.292144,0.19844 -0.620118,0.29766 -0.325217,0.0992 -0.689019,0.0992 -0.93431,0 -1.471744,-0.5705 -0.537435,-0.57327 -0.537435,-1.5627 0,-0.99219 0.537435,-1.56269 0.537434,-0.57327 1.471744,-0.57327 0.369315,0 0.694532,0.0992 0.327973,0.0965 0.614605,0.29215 z"
         style="stroke-width:0.303;stroke-miterlimit:4;stroke-dasharray:none"
         id="path927" />
    </g>
    <g
       aria-label="A"
       style="font-style:normal;font-weight:normal;font-size:5.64444447px;line-height:1.25;font-family:sans-serif;letter-spacing:0px;word-spacing:0px;fill:#000000;fill-opacity:1;stroke:none;stroke-width:0.303;stroke-miterlimit:4;stroke-dasharray:none"
       id="text939-3-9">
      <path
         d="m 78.614404,138.95784 -0.755165,2.04776 h 1.513086 z m -0.314193,-0.54846 h 0.631141 l 1.568208,4.11482 h -0.578776 l -0.374827,-1.05558 h -1.854839 l -0.374826,1.05558 h -0.587045 z"
         style="stroke-width:0.303;stroke-miterlimit:4;stroke-dasharray:none"
         id="path930" />
    </g>
    <g
       aria-label="D"
       style="font-style:normal;font-weight:normal;font-size:5.64444447px;line-height:1.25;font-family:sans-serif;letter-spacing:0px;word-spacing:0px;fill:#000000;fill-opacity:1;stroke:none;stroke-width:0.303;stroke-miterlimit:4;stroke-dasharray:none"
       id="text939-3-02">
      <path
         d="m 87.559803,138.86689 v 3.1998 h 0.672483 q 0.851627,0 1.245746,-0.38585 0.396875,-0.38585 0.396875,-1.21818 0,-0.82683 -0.396875,-1.20992 -0.394119,-0.38585 -1.245746,-0.38585 z m -0.556727,-0.45751 h 1.143771 q 1.196138,0 1.755621,0.49885 0.559484,0.49609 0.559484,1.55443 0,1.06384 -0.56224,1.56269 -0.56224,0.49885 -1.752865,0.49885 h -1.143771 z"
         style="stroke-width:0.303;stroke-miterlimit:4;stroke-dasharray:none"
         id="path933" />
    </g>
    <g
       aria-label="S"
       style="font-style:normal;font-weight:normal;font-size:5.64444447px;line-height:1.25;font-family:sans-serif;letter-spacing:0px;word-spacing:0px;fill:#000000;fill-opacity:1;stroke:none;stroke-width:0.303;stroke-miterlimit:4;stroke-dasharray:none"
       id="text939-3-7">
      <path
         d="m 100.0509,138.54166 v 0.54295 q -0.316954,-0.15158 -0.598074,-0.226 -0.281119,-0.0744 -0.542947,-0.0744 -0.454752,0 -0.702799,0.17639 -0.245291,0.17639 -0.245291,0.5016 0,0.27286 0.162609,0.41342 0.165364,0.1378 0.622873,0.22324 l 0.336241,0.0689 q 0.622873,0.11851 0.917778,0.41892 0.29765,0.29766 0.29765,0.79927 0,0.59806 -0.402385,0.90674 -0.399631,0.30868 -1.174089,0.30868 -0.292144,0 -0.622873,-0.0661 -0.327973,-0.0662 -0.680751,-0.19568 v -0.57327 q 0.338997,0.19017 0.664214,0.28664 0.325217,0.0965 0.63941,0.0965 0.476801,0 0.735873,-0.18741 0.259071,-0.18742 0.259071,-0.53468 0,-0.30317 -0.187413,-0.47405 -0.184658,-0.17088 -0.609093,-0.25631 l -0.338998,-0.0661 q -0.622873,-0.12402 -0.901237,-0.38861 -0.278363,-0.26458 -0.278363,-0.73587 0,-0.5457 0.383094,-0.85989 0.385851,-0.3142 1.06109,-0.3142 0.289388,0 0.5898,0.0524 0.300412,0.0524 0.61461,0.15709 z"
         style="stroke-width:0.303;stroke-miterlimit:4;stroke-dasharray:none"
         id="path936" />
    </g>
    <g
       aria-label="G"
       style="font-style:normal;font-weight:normal;font-size:5.64444447px;line-height:1.25;font-family:sans-serif;letter-spacing:0px;word-spacing:0px;fill:#000000;fill-opacity:1;stroke:none;stroke-width:0.303;stroke-miterlimit:4;stroke-dasharray:none"
       id="text939-3-92">
      <path
         d="m 110.21449,141.93439 v -1.10518 h -0.90951 v -0.45751 h 1.46072 v 1.76664 q -0.32246,0.22876 -0.71107,0.34727 -0.3886,0.11575 -0.82958,0.11575 -0.96462,0 -1.51033,-0.56223 -0.54294,-0.565 -0.54294,-1.57097 0,-1.00872 0.54294,-1.57096 0.54571,-0.565 1.51033,-0.565 0.40239,0 0.76344,0.0992 0.3638,0.0992 0.66972,0.29215 v 0.59255 q -0.30868,-0.26183 -0.65594,-0.39412 -0.34727,-0.13229 -0.73036,-0.13229 -0.75517,0 -1.13551,0.42168 -0.37758,0.42168 -0.37758,1.25677 0,0.83234 0.37758,1.25402 0.38034,0.42168 1.13551,0.42168 0.2949,0 0.52641,-0.0496 0.23151,-0.0524 0.41617,-0.15986 z"
         style="stroke-width:0.303;stroke-miterlimit:4;stroke-dasharray:none"
         id="path939" />
    </g>
    <g
       aria-label="Ignored"
       style="font-style:normal;font-weight:normal;font-size:5.64444447px;line-height:1.25;font-family:sans-serif;letter-spacing:0px;word-spacing:0px;fill:#000000;fill-opacity:1;stroke:none;stroke-width:0.303;stroke-miterlimit:4;stroke-dasharray:none"
       id="text939-3-97">
      <path
         d="m 118.73836,137.90915 h 0.55673 v 4.11482 h -0.55673 z"
         style="stroke-width:0.303;stroke-miterlimit:4;stroke-dasharray:none"
         id="path942" />
      <path
         d="m 122.41221,140.44474 q 0,-0.55122 -0.22876,-0.85438 -0.22599,-0.30317 -0.63665,-0.30317 -0.4079,0 -0.63665,0.30317 -0.226,0.30316 -0.226,0.85438 0,0.54846 0.226,0.85163 0.22875,0.30317 0.63665,0.30317 0.41066,0 0.63665,-0.30317 0.22876,-0.30317 0.22876,-0.85163 z m 0.50712,1.19614 q 0,0.78823 -0.35003,1.17133 -0.35002,0.38585 -1.07211,0.38585 -0.26734,0 -0.50436,-0.0413 -0.23702,-0.0386 -0.46027,-0.12127 v -0.49334 q 0.22325,0.12127 0.44098,0.17915 0.21773,0.0579 0.44372,0.0579 0.49885,0 0.7469,-0.26183 0.24805,-0.25907 0.24805,-0.78548 v -0.25081 q -0.1571,0.27286 -0.40239,0.4079 -0.24529,0.13505 -0.58704,0.13505 -0.56775,0 -0.91502,-0.4327 -0.34727,-0.43271 -0.34727,-1.14653 0,-0.71658 0.34727,-1.14928 0.34727,-0.43271 0.91502,-0.43271 0.34175,0 0.58704,0.13505 0.24529,0.13505 0.40239,0.4079 v -0.46853 h 0.50712 z"
         style="stroke-width:0.303;stroke-miterlimit:4;stroke-dasharray:none"
         id="path944" />
      <path
         d="m 126.52979,140.16086 v 1.86311 h -0.50712 v -1.84657 q 0,-0.43822 -0.17088,-0.65595 -0.17087,-0.21773 -0.51263,-0.21773 -0.41065,0 -0.64768,0.26183 -0.23702,0.26183 -0.23702,0.71383 v 1.74459 h -0.50987 v -3.0868 h 0.50987 v 0.47955 q 0.1819,-0.27836 0.42719,-0.41616 0.24805,-0.13781 0.57051,-0.13781 0.53192,0 0.80478,0.33073 0.27285,0.32797 0.27285,0.96738 z"
         style="stroke-width:0.303;stroke-miterlimit:4;stroke-dasharray:none"
         id="path946" />
      <path
         d="m 128.74292,139.2927 q -0.4079,0 -0.64493,0.3197 -0.23702,0.31695 -0.23702,0.87092 0,0.55398 0.23427,0.87368 0.23702,0.31695 0.64768,0.31695 0.40514,0 0.64216,-0.31971 0.23702,-0.3197 0.23702,-0.87092 0,-0.54845 -0.23702,-0.86816 -0.23702,-0.32246 -0.64216,-0.32246 z m 0,-0.42995 q 0.66145,0 1.03904,0.42995 0.37758,0.42995 0.37758,1.19062 0,0.75793 -0.37758,1.19063 -0.37759,0.42995 -1.03904,0.42995 -0.66422,0 -1.0418,-0.42995 -0.37483,-0.4327 -0.37483,-1.19063 0,-0.76067 0.37483,-1.19062 0.37758,-0.42995 1.0418,-0.42995 z"
         style="stroke-width:0.303;stroke-miterlimit:4;stroke-dasharray:none"
         id="path948" />
      <path
         d="m 132.78608,139.41121 q -0.0854,-0.0496 -0.18741,-0.0717 -0.0992,-0.0248 -0.22049,-0.0248 -0.42995,0 -0.66146,0.28112 -0.22875,0.27836 -0.22875,0.80202 v 1.62608 h -0.50988 v -3.0868 h 0.50988 v 0.47955 q 0.15985,-0.28112 0.41617,-0.41616 0.25631,-0.13781 0.62287,-0.13781 0.0524,0 0.11575,0.008 0.0634,0.006 0.14056,0.0193 z"
         style="stroke-width:0.303;stroke-miterlimit:4;stroke-dasharray:none"
         id="path950" />
      <path
         d="m 135.84257,140.35379 v 0.24805 h -2.33164 q 0.0331,0.52365 0.31419,0.79926 0.28388,0.27285 0.78824,0.27285 0.29214,0 0.56499,-0.0717 0.27561,-0.0717 0.54571,-0.21497 v 0.47956 q -0.27285,0.11575 -0.55949,0.17638 -0.28663,0.0606 -0.58153,0.0606 -0.73863,0 -1.17133,-0.42995 -0.42995,-0.42995 -0.42995,-1.16306 0,-0.75793 0.4079,-1.20165 0.41066,-0.44649 1.10519,-0.44649 0.62287,0 0.98392,0.40239 0.3638,0.39963 0.3638,1.08865 z m -0.50712,-0.14883 q -0.006,-0.41617 -0.23427,-0.66421 -0.22599,-0.24805 -0.60082,-0.24805 -0.42444,0 -0.68075,0.23978 -0.25356,0.23978 -0.29215,0.67524 z"
         style="stroke-width:0.303;stroke-miterlimit:4;stroke-dasharray:none"
         id="path952" />
      <path
         d="m 138.70613,139.4057 v -1.67018 h 0.50712 v 4.28845 h -0.50712 v -0.46302 q -0.15985,0.27561 -0.40514,0.41066 -0.24254,0.13229 -0.58429,0.13229 -0.55948,0 -0.91226,-0.44649 -0.35002,-0.44648 -0.35002,-1.17409 0,-0.7276 0.35002,-1.17408 0.35278,-0.44649 0.91226,-0.44649 0.34175,0 0.58429,0.13505 0.24529,0.13229 0.40514,0.4079 z m -1.72806,1.07762 q 0,0.55949 0.22876,0.87919 0.23151,0.31695 0.63389,0.31695 0.40239,0 0.6339,-0.31695 0.23151,-0.3197 0.23151,-0.87919 0,-0.55948 -0.23151,-0.87643 -0.23151,-0.3197 -0.6339,-0.3197 -0.40238,0 -0.63389,0.3197 -0.22876,0.31695 -0.22876,0.87643 z"
         style="stroke-width:0.303;stroke-miterlimit:4;stroke-dasharray:none"
         id="path954" />
    </g>
    <g
       aria-label="Ignored"
       style="font-style:normal;font-weight:normal;font-size:5.64444447px;line-height:1.25;font-family:sans-serif;letter-spacing:0px;word-spacing:0px;fill:#000000;fill-opacity:1;stroke:none;stroke-width:0.303;stroke-miterlimit:4;stroke-dasharray:none"
       id="text939-3-1">
      <path
         d="m 88.268472,168.07591 h 0.556727 v 4.11482 h -0.556727 z"
         style="stroke-width:0.303;stroke-miterlimit:4;stroke-dasharray:none"
         id="path957" />
      <path
         d="m 91.942322,170.6115 q 0,-0.55121 -0.228755,-0.85438 -0.225998,-0.30317 -0.636653,-0.30317 -0.4079,0 -0.636654,0.30317 -0.225998,0.30317 -0.225998,0.85438 0,0.54846 0.225998,0.85163 0.228754,0.30317 0.636654,0.30317 0.410655,0 0.636653,-0.30317 0.228755,-0.30317 0.228755,-0.85163 z m 0.507118,1.19614 q 0,0.78824 -0.350022,1.17133 -0.350022,0.38585 -1.072114,0.38585 -0.267339,0 -0.504362,-0.0413 -0.237022,-0.0386 -0.460265,-0.12127 v -0.49333 q 0.223243,0.12126 0.440973,0.17914 0.21773,0.0579 0.443728,0.0579 0.49885,0 0.746897,-0.26183 0.248047,-0.25907 0.248047,-0.78548 v -0.2508 q -0.157097,0.27285 -0.402388,0.4079 -0.24529,0.13504 -0.587044,0.13504 -0.567752,0 -0.915017,-0.4327 -0.347266,-0.4327 -0.347266,-1.14653 0,-0.71658 0.347266,-1.14928 0.347265,-0.4327 0.915017,-0.4327 0.341754,0 0.587044,0.13504 0.245291,0.13505 0.402388,0.4079 v -0.46853 h 0.507118 z"
         style="stroke-width:0.303;stroke-miterlimit:4;stroke-dasharray:none"
         id="path959" />
      <path
         d="m 96.0599,170.32763 v 1.8631 h -0.507118 v -1.84657 q 0,-0.43821 -0.170877,-0.65594 -0.170877,-0.21773 -0.51263,-0.21773 -0.410656,0 -0.647678,0.26182 -0.237023,0.26183 -0.237023,0.71383 v 1.74459 H 93.4747 v -3.0868 h 0.509874 v 0.47956 q 0.181901,-0.27837 0.427192,-0.41617 0.248047,-0.1378 0.570508,-0.1378 0.531923,0 0.804774,0.33072 0.272852,0.32798 0.272852,0.96739 z"
         style="stroke-width:0.303;stroke-miterlimit:4;stroke-dasharray:none"
         id="path961" />
      <path
         d="m 98.273029,169.45946 q -0.407899,0 -0.644921,0.31971 -0.237023,0.31695 -0.237023,0.87092 0,0.55397 0.234267,0.87367 0.237022,0.31695 0.647677,0.31695 0.405144,0 0.642166,-0.3197 0.237023,-0.31971 0.237023,-0.87092 0,-0.54846 -0.237023,-0.86817 -0.237022,-0.32246 -0.642166,-0.32246 z m 0,-0.42994 q 0.661459,0 1.039041,0.42994 0.377583,0.42995 0.377583,1.19063 0,0.75792 -0.377583,1.19062 -0.377582,0.42995 -1.039041,0.42995 -0.664214,0 -1.041796,-0.42995 -0.374827,-0.4327 -0.374827,-1.19062 0,-0.76068 0.374827,-1.19063 0.377582,-0.42994 1.041796,-0.42994 z"
         style="stroke-width:0.303;stroke-miterlimit:4;stroke-dasharray:none"
         id="path963" />
      <path
         d="m 102.31619,169.57797 q -0.0854,-0.0496 -0.18741,-0.0717 -0.0992,-0.0248 -0.22049,-0.0248 -0.42994,0 -0.66145,0.28112 -0.22876,0.27837 -0.22876,0.80202 v 1.62608 h -0.50987 v -3.0868 h 0.50987 v 0.47956 q 0.15985,-0.28112 0.41617,-0.41617 0.25631,-0.1378 0.62287,-0.1378 0.0524,0 0.11576,0.008 0.0634,0.006 0.14056,0.0193 z"
         style="stroke-width:0.303;stroke-miterlimit:4;stroke-dasharray:none"
         id="path965" />
      <path
         d="m 105.37268,170.52055 v 0.24805 h -2.33164 q 0.0331,0.52365 0.31419,0.79926 0.28388,0.27285 0.78824,0.27285 0.29215,0 0.565,-0.0717 0.2756,-0.0717 0.5457,-0.21498 v 0.47956 q -0.27285,0.11575 -0.55948,0.17639 -0.28664,0.0606 -0.58154,0.0606 -0.73862,0 -1.17133,-0.42995 -0.42995,-0.42994 -0.42995,-1.16306 0,-0.75792 0.4079,-1.20165 0.41066,-0.44648 1.10519,-0.44648 0.62287,0 0.98392,0.40238 0.3638,0.39963 0.3638,1.08865 z m -0.50712,-0.14883 q -0.006,-0.41616 -0.23426,-0.66421 -0.226,-0.24805 -0.60083,-0.24805 -0.42443,0 -0.68075,0.23978 -0.25356,0.23978 -0.29214,0.67524 z"
         style="stroke-width:0.303;stroke-miterlimit:4;stroke-dasharray:none"
         id="path967" />
      <path
         d="m 108.23624,169.57246 v -1.67018 h 0.50712 v 4.28845 h -0.50712 v -0.46302 q -0.15985,0.27561 -0.40514,0.41066 -0.24253,0.13229 -0.58429,0.13229 -0.55948,0 -0.91226,-0.44648 -0.35002,-0.44649 -0.35002,-1.17409 0,-0.72761 0.35002,-1.17409 0.35278,-0.44648 0.91226,-0.44648 0.34176,0 0.58429,0.13504 0.24529,0.13229 0.40514,0.4079 z m -1.72806,1.07763 q 0,0.55948 0.22876,0.87919 0.23151,0.31695 0.6339,0.31695 0.40238,0 0.63389,-0.31695 0.23151,-0.31971 0.23151,-0.87919 0,-0.55949 -0.23151,-0.87643 -0.23151,-0.31971 -0.63389,-0.31971 -0.40239,0 -0.6339,0.31971 -0.22876,0.31694 -0.22876,0.87643 z"
         style="stroke-width:0.303;stroke-miterlimit:4;stroke-dasharray:none"
         id="path969" />
    </g>
    <g
       aria-label="PK"
       style="font-style:normal;font-weight:normal;font-size:5.64444447px;line-height:1.25;font-family:sans-serif;letter-spacing:0px;word-spacing:0px;fill:#000000;fill-opacity:1;stroke:none;stroke-width:0.303;stroke-miterlimit:4;stroke-dasharray:none"
       id="text939-3-3">
      <path
         d="m 151.21852,169.15604 v 1.54616 h 0.70004 q 0.38861,0 0.60083,-0.20119 0.21221,-0.2012 0.21221,-0.57327 0,-0.36931 -0.21221,-0.57051 -0.21222,-0.20119 -0.60083,-0.20119 z m -0.55673,-0.45751 h 1.25677 q 0.69178,0 1.04455,0.3142 0.35554,0.31143 0.35554,0.91501 0,0.6091 -0.35554,0.92053 -0.35277,0.31144 -1.04455,0.31144 h -0.70004 v 1.65364 h -0.55673 z"
         style="stroke-width:0.303;stroke-miterlimit:4;stroke-dasharray:none"
         id="path972" />
      <path
         d="m 154.0683,168.69853 h 0.55673 v 1.73909 l 1.84657,-1.73909 h 0.71658 l -2.04225,1.91823 2.18832,2.19659 h -0.73312 l -1.9761,-1.98161 v 1.98161 h -0.55673 z"
         style="stroke-width:0.303;stroke-miterlimit:4;stroke-dasharray:none"
         id="path974" />
    </g>
    <g
       aria-label="X"
       style="font-style:normal;font-weight:normal;font-size:5.64444447px;line-height:1.25;font-family:sans-serif;letter-spacing:0px;word-spacing:0px;fill:#000000;fill-opacity:1;stroke:none;stroke-width:0.303;stroke-miterlimit:4;stroke-dasharray:none"
       id="text939-3-94">
      <path
         d="m 177.58132,168.57614 h 0.59807 l 1.0225,1.52962 1.02802,-1.52962 h 0.59807 l -1.32292,1.97611 1.41111,2.13871 h -0.59807 l -1.15755,-1.7501 -1.16582,1.7501 h -0.60083 l 1.46899,-2.19659 z"
         style="stroke-width:0.303;stroke-miterlimit:4;stroke-dasharray:none"
         id="path977" />
    </g>
  </g>
</svg>
