<?xml version="1.0" encoding="UTF-8" standalone="no"?>
<!-- Created with Inkscape (http://www.inkscape.org/) -->

<svg
   xmlns:dc="http://purl.org/dc/elements/1.1/"
   xmlns:cc="http://creativecommons.org/ns#"
   xmlns:rdf="http://www.w3.org/1999/02/22-rdf-syntax-ns#"
   xmlns:svg="http://www.w3.org/2000/svg"
   xmlns="http://www.w3.org/2000/svg"
   xmlns:sodipodi="http://sodipodi.sourceforge.net/DTD/sodipodi-0.dtd"
   xmlns:inkscape="http://www.inkscape.org/namespaces/inkscape"
   id="svg2"
   version="1.1"
   inkscape:version="0.91 r13725"
   xml:space="preserve"
   width="493.75"
   height="157.5"
   viewBox="0 0 493.75 157.5"
   sodipodi:docname="transient-overview.svg"><metadata
     id="metadata8"><rdf:RDF><cc:Work
         rdf:about=""><dc:format>image/svg+xml</dc:format><dc:type
           rdf:resource="http://purl.org/dc/dcmitype/StillImage" /><dc:title></dc:title></cc:Work></rdf:RDF></metadata><defs
     id="defs6"><clipPath
       clipPathUnits="userSpaceOnUse"
       id="clipPath16"><path
         d="m 0,0 394.99997,0 0,125.68182 L 0,125.68182 0,0 Z"
         id="path18"
         inkscape:connector-curvature="0"
         style="clip-rule:evenodd" /></clipPath><clipPath
       clipPathUnits="userSpaceOnUse"
       id="clipPath28"><path
         d="m 0,0 394.99997,0 0,125.68182 L 0,125.68182 0,0 Z"
         id="path30"
         inkscape:connector-curvature="0"
         style="clip-rule:evenodd" /></clipPath><clipPath
       clipPathUnits="userSpaceOnUse"
       id="clipPath64"><path
         d="m 345.80453,55.299999 30.8818,0 0,28.00909 -30.8818,0 0,-28.00909 z"
         id="path66"
         inkscape:connector-curvature="0"
         style="clip-rule:evenodd" /></clipPath><clipPath
       clipPathUnits="userSpaceOnUse"
       id="clipPath78"><path
         d="m 0,0 394.99997,0 0,125.68182 L 0,125.68182 0,0 Z"
         id="path80"
         inkscape:connector-curvature="0"
         style="clip-rule:evenodd" /></clipPath><clipPath
       clipPathUnits="userSpaceOnUse"
       id="clipPath170"><path
         d="m 202.52727,3.231818 20.10908,0 0,14.363635 -20.10908,0 0,-14.363635 z"
         id="path172"
         inkscape:connector-curvature="0"
         style="clip-rule:evenodd" /></clipPath><clipPath
       clipPathUnits="userSpaceOnUse"
       id="clipPath192"><path
         d="m 39.5,30.881817 25.13636,0 0,25.136364 -25.13636,0 0,-25.136364 z"
         id="path194"
         inkscape:connector-curvature="0"
         style="clip-rule:evenodd" /></clipPath><clipPath
       clipPathUnits="userSpaceOnUse"
       id="clipPath204"><path
         d="m 0,0 394.99997,0 0,125.68182 L 0,125.68182 0,0 Z"
         id="path206"
         inkscape:connector-curvature="0"
         style="clip-rule:evenodd" /></clipPath><clipPath
       clipPathUnits="userSpaceOnUse"
       id="clipPath222"><path
         d="m 179.18636,59.249996 45.24545,0 0,23.700001 -45.24545,0 0,-23.700001 z"
         id="path224"
         inkscape:connector-curvature="0"
         style="clip-rule:evenodd" /></clipPath><clipPath
       clipPathUnits="userSpaceOnUse"
       id="clipPath256"><path
         d="m 0,0 394.99997,0 0,125.68182 L 0,125.68182 0,0 Z"
         id="path258"
         inkscape:connector-curvature="0"
         style="clip-rule:evenodd" /></clipPath><clipPath
       clipPathUnits="userSpaceOnUse"
       id="clipPath308"><path
         d="m 319.59088,52.427269 0,-27.290907 27.29093,0 0,27.290911 -27.29093,-4e-6 z"
         id="path310"
         inkscape:connector-curvature="0"
         style="clip-rule:evenodd" /></clipPath><clipPath
       clipPathUnits="userSpaceOnUse"
       id="clipPath330"><path
         d="m 7.8999996,43.090908 36.6272664,0 0,36.62727 -36.6272664,0 0,-36.62727 z"
         id="path332"
         inkscape:connector-curvature="0"
         style="clip-rule:evenodd" /></clipPath></defs><sodipodi:namedview
     pagecolor="#ffffff"
     bordercolor="#666666"
     borderopacity="1"
     objecttolerance="10"
     gridtolerance="10"
     guidetolerance="10"
     inkscape:pageopacity="0"
     inkscape:pageshadow="2"
     inkscape:window-width="1855"
     inkscape:window-height="1056"
     id="namedview4"
     showgrid="false"
     inkscape:zoom="2.1080733"
     inkscape:cx="251.49962"
     inkscape:cy="114.73552"
     inkscape:window-x="65"
     inkscape:window-y="24"
     inkscape:window-maximized="1"
     inkscape:current-layer="g10" /><g
     id="g10"
     inkscape:groupmode="layer"
     inkscape:label="transient-overview"
     transform="scale(1.25,1.25)"><g
       id="g32"
       transform="matrix(0.71818179,0,0,0.71818179,0.35909089,0.35909089)"><path
         d="m 145.05,37 208.90001,0 C 356.64999,37 358,38.349998 358,41.049999 l 0,18.900002 C 358,62.650002 356.64999,64 353.95001,64 L 145.05,64 C 142.35001,64 141,62.650002 141,59.950001 l 0,-18.900002 C 141,38.349998 142.35001,37 145.05,37 Z"
         style="fill:#f8cecc;fill-opacity:1;fill-rule:nonzero;stroke:none"
         id="path34"
         inkscape:connector-curvature="0" /><path
         d="m 145.05,37 208.90001,0 C 356.64999,37 358,38.349998 358,41.049999 l 0,18.900002 C 358,62.650002 356.64999,64 353.95001,64 L 145.05,64 C 142.35001,64 141,62.650002 141,59.950001 l 0,-18.900002 C 141,38.349998 142.35001,37 145.05,37 Z"
         style="fill:none;stroke:#b85450;stroke-width:1;stroke-linecap:butt;stroke-linejoin:miter;stroke-miterlimit:10;stroke-dasharray:none;stroke-opacity:1"
         id="path36"
         inkscape:connector-curvature="0" /><path
         d="M 105.05,1 416.95001,1 C 419.64999,1 421,2.3499999 421,5.0500002 l 0,18.9000008 C 421,26.65 419.64999,28 416.95001,28 L 105.05,28 C 102.35,28 101,26.65 101,23.950001 L 101,5.0500002 C 101,2.3499999 102.35,1 105.05,1 Z"
         style="fill:#fff2cc;fill-opacity:1;fill-rule:nonzero;stroke:none"
         id="path38"
         inkscape:connector-curvature="0" /><path
         d="M 105.05,1 416.95001,1 C 419.64999,1 421,2.3499999 421,5.0500002 l 0,18.9000008 C 421,26.65 419.64999,28 416.95001,28 L 105.05,28 C 102.35,28 101,26.65 101,23.950001 L 101,5.0500002 C 101,2.3499999 102.35,1 105.05,1 Z"
         style="fill:none;stroke:#d6b656;stroke-width:1;stroke-linecap:butt;stroke-linejoin:miter;stroke-miterlimit:10;stroke-dasharray:none;stroke-opacity:1"
         id="path40"
         inkscape:connector-curvature="0" /></g><g
       id="g42"
       transform="matrix(0.71818179,0,0,0.71818179,27.290909,5.7454543)"><text
         transform="translate(0.78125,11)"
         style="font-variant:normal;font-weight:bold;font-size:12px;font-family:Verdana;-inkscape-font-specification:Verdana-Bold;writing-mode:lr-tb;fill:#000000;fill-opacity:1;fill-rule:nonzero;stroke:none"
         id="text44"><tspan
           x="0 8.390625 14.355469 22.324219 27.392578 35.408203 42.46875"
           y="0"
           sodipodi:role="line"
           id="tspan46">preface</tspan></text>
</g><g
       id="g48"
       transform="matrix(0.71818179,0,0,0.71818179,0.35909089,0.35909089)"><path
         d="m 31,14 c -2e-6,2.761423 -0.976313,5.118444 -2.928934,7.071066 C 26.118444,23.023687 23.761423,23.999998 21,24 18.238577,23.999998 15.881554,23.023687 13.928932,21.071066 11.976311,19.118444 11,16.761423 11,14 11,11.238575 11.976311,8.8815527 13.928932,6.9289317 15.881554,4.9763107 18.238577,4 21,4 23.761423,4 26.118444,4.9763107 28.071066,6.9289317 30.023687,8.8815527 30.999998,11.238575 31,14 Z"
         style="fill:#ffffff;fill-opacity:1;fill-rule:nonzero;stroke:none"
         id="path50"
         inkscape:connector-curvature="0" /><path
         d="m 31,14 c -2e-6,2.761423 -0.976313,5.118444 -2.928934,7.071066 C 26.118444,23.023687 23.761423,23.999998 21,24 18.238577,23.999998 15.881554,23.023687 13.928932,21.071066 11.976311,19.118444 11,16.761423 11,14 11,11.238575 11.976311,8.8815527 13.928932,6.9289317 15.881554,4.9763107 18.238577,4 21,4 23.761423,4 26.118444,4.9763107 28.071066,6.9289317 30.023687,8.8815527 30.999998,11.238575 31,14 Z"
         style="fill:none;stroke:#000000;stroke-width:1;stroke-linecap:butt;stroke-linejoin:miter;stroke-miterlimit:10;stroke-dasharray:none;stroke-opacity:1"
         id="path52"
         inkscape:connector-curvature="0" /></g><g
       id="g54"
       transform="matrix(0.71818179,0,0,0.71818179,12.20909,5.7454543)"><text
         transform="translate(0.734375,11)"
         style="font-variant:normal;font-weight:bold;font-size:12px;font-family:Verdana;-inkscape-font-specification:Verdana-Bold;writing-mode:lr-tb;fill:#000000;fill-opacity:1;fill-rule:nonzero;stroke:none"
         id="text56"><tspan
           x="0"
           y="0"
           id="tspan58">1</tspan></text>
</g><g
       id="g68"
       transform="matrix(0.32420093,0,0,0.32446092,345.05475,53.093666)"><path
         d="m 88.5,62.400002 c -2.699997,1 -7,2.099998 -11.800003,3.199996 C 75,68.400002 71.899994,70.699997 67,71.599998 65.900002,71.799995 64.599998,71.900002 63.200001,72 c -3.400002,0.1 -7.400002,-0.300003 -11.799999,-0.599998 -0.3,0 -0.599999,0 -0.900002,-0.1 -1.099998,-0.1 -2,-0.900001 -2.099998,-2 -0.1,-1.400001 1,-2.5 2.299999,-2.300003 0.299999,0 0.700001,0.1 1,0.1 5.700001,0.5 11.100002,1 14.499996,0.300004 6.300003,-1.199997 8.099998,-5 7.699997,-8.200001 C 73.599991,56.600003 71.599991,54.100003 68.499992,54.3 c -4.400001,0.299999 -9.599998,0 -14.7,-0.400001 -5.8,-0.400002 -11.700001,-0.599999 -16,-0.1 -4.700001,0.5 -14.200001,4 -22.600001,9.700001 -4.1,2.800003 -8.6999996,6.099998 -11.4999998,8.199997 -1.4000001,1 -1.7,3 -0.5999999,4.400001 L 15.299992,91.900002 c 1,1.400001 3,1.599998 4.399999,0.599998 l 4.50001,-3.5 c 1.1,-0.800003 2.5,-1.099998 3.700001,-0.699997 8.2,2.599999 17,4.300003 22.7,4.599999 12.5,0.599998 36.599995,-14.199997 43.500004,-19 7.000004,-4.699997 2,-14.3 -5.599998,-11.5 l -8e-6,0 z"
         style="fill:#000000;fill-opacity:1;fill-rule:nonzero;stroke:none"
         id="path70"
         inkscape:connector-curvature="0" /><path
         d="m 61.599998,45.900002 c 0.599999,0.599998 1.599999,0.599998 2.200001,0 L 78.800003,31 c 0.599999,-0.6 0.599999,-1.6 0,-2.200001 l -3.699997,-3.700001 c -0.599998,-0.6 -1.599998,-0.6 -2.199997,0 l -6,6 0,-22.7000003 c 0,-0.9000001 -0.699997,-1.5999999 -1.599998,-1.5999999 l -5.200001,0 c -0.900002,0 -1.599999,0.6999998 -1.599999,1.5999999 l 0,22.6000003 -6,-6 c -0.599998,-0.6 -1.599998,-0.6 -2.2,0 l -3.700001,3.700001 c -0.599999,0.6 -0.599999,1.6 0,2.200001 l 15,15.000002 -1.2e-5,0 z"
         style="fill:#000000;fill-opacity:1;fill-rule:nonzero;stroke:none"
         id="path72"
         inkscape:connector-curvature="0" /></g><text
       id="text84"
       style="font-variant:normal;font-weight:bold;font-size:8.61818123px;font-family:Verdana;-inkscape-font-specification:Verdana-Bold;writing-mode:lr-tb;fill:#000000;fill-opacity:1;fill-rule:nonzero;stroke:none"
       x="333.43835"
       y="94.081818"><tspan
         id="tspan86"
         sodipodi:role="line"
         y="94.081818"
         x="333.43835 337.7222 343.44519 348.51596 354.43256 360.57214 365.685 369.61115 373.89499 380.03461 385.10535">reconstruct</tspan></text>
<path
       inkscape:connector-curvature="0"
       id="path90"
       style="fill:#ffffff;fill-opacity:1;fill-rule:nonzero;stroke:none"
       d="m 329.28635,90.849996 c -2e-5,1.983195 -0.70122,3.675971 -2.10355,5.078307 -1.40232,1.402336 -3.09509,2.103497 -5.07827,2.103511 -1.98321,-1.4e-5 -3.67599,-0.701175 -5.07834,-2.103511 -1.40232,-1.402336 -2.1035,-3.095112 -2.10348,-5.078307 -2e-5,-1.983208 0.70116,-3.675977 2.10348,-5.078313 1.40235,-1.402336 3.09513,-2.103504 5.07834,-2.103504 1.98318,0 3.67595,0.701168 5.07827,2.103504 1.40233,1.402336 2.10353,3.095105 2.10355,5.078313 z" /><path
       inkscape:connector-curvature="0"
       id="path92"
       style="fill:none;stroke:#000000;stroke-width:0.71818179;stroke-linecap:butt;stroke-linejoin:miter;stroke-miterlimit:10;stroke-dasharray:none;stroke-opacity:1"
       d="m 329.28635,90.849996 c -2e-5,1.983195 -0.70122,3.675971 -2.10355,5.078307 -1.40232,1.402336 -3.09509,2.103497 -5.07827,2.103511 -1.98321,-1.4e-5 -3.67599,-0.701175 -5.07834,-2.103511 -1.40232,-1.402336 -2.1035,-3.095112 -2.10348,-5.078307 -2e-5,-1.983208 0.70116,-3.675977 2.10348,-5.078313 1.40235,-1.402336 3.09513,-2.103504 5.07834,-2.103504 1.98318,0 3.67595,0.701168 5.07827,2.103504 1.40233,1.402336 2.10353,3.095105 2.10355,5.078313 z" /><text
       id="text96"
       style="font-variant:normal;font-weight:bold;font-size:8.61818123px;font-family:Verdana;-inkscape-font-specification:Verdana-Bold;writing-mode:lr-tb;fill:#000000;fill-opacity:1;fill-rule:nonzero;stroke:none"
       x="319.40012"
       y="94.081818"><tspan
         id="tspan98"
         y="94.081818"
         x="319.40012">5</tspan></text>
<text
       id="text102"
       style="font-variant:normal;font-weight:bold;font-size:8.61818123px;font-family:Verdana;-inkscape-font-specification:Verdana-Bold;writing-mode:lr-tb;fill:#000000;fill-opacity:1;fill-rule:nonzero;stroke:none"
       x="106.45922"
       y="14.363636"><tspan
         id="tspan104"
         sodipodi:role="line"
         y="14.363636"
         x="106.45922 110.38538 114.66921 117.61488 123.64088 129.66687 135.38988 139.67372 142.6194 145.56506 151.70467 156.8175 160.74367 165.02751 171.16711 176.23787 180.16403 183.1097 189.02628">trigger instruction</tspan></text>
<text
       id="text106"
       style="font-variant:normal;font-weight:bold;font-size:10.0545454px;font-family:Verdana;-inkscape-font-specification:Verdana-Bold;writing-mode:lr-tb;fill:#000000;fill-opacity:1;fill-rule:nonzero;stroke:none"
       x="195.16589"
       y="14.363636"><tspan
         id="tspan108"
         y="14.363636"
         x="195.16589"> </tspan></text>
<path
       inkscape:connector-curvature="0"
       id="path112"
       style="fill:#ffffff;fill-opacity:1;fill-rule:nonzero;stroke:none"
       d="m 93.722724,10.413636 c 0,1.983204 -0.701176,3.675973 -2.103505,5.078311 -1.402336,1.402337 -3.095112,2.103505 -5.078313,2.103507 -1.983216,-2e-6 -3.675985,-0.70117 -5.078314,-2.103507 -1.402343,-1.402338 -2.103511,-3.095107 -2.103504,-5.078311 -7e-6,-1.9832052 0.701161,-3.6759757 2.103504,-5.0783125 1.402329,-1.4023369 3.095098,-2.1035054 5.078314,-2.1035054 1.983201,0 3.675977,0.7011685 5.078313,2.1035054 1.402329,1.4023368 2.103505,3.0951073 2.103505,5.0783125 z" /><path
       inkscape:connector-curvature="0"
       id="path114"
       style="fill:none;stroke:#000000;stroke-width:0.71818179;stroke-linecap:butt;stroke-linejoin:miter;stroke-miterlimit:10;stroke-dasharray:none;stroke-opacity:1"
       d="m 93.722724,10.413636 c 0,1.983204 -0.701176,3.675973 -2.103505,5.078311 -1.402336,1.402337 -3.095112,2.103505 -5.078313,2.103507 -1.983216,-2e-6 -3.675985,-0.70117 -5.078314,-2.103507 -1.402343,-1.402338 -2.103511,-3.095107 -2.103504,-5.078311 -7e-6,-1.9832052 0.701161,-3.6759757 2.103504,-5.0783125 1.402329,-1.4023369 3.095098,-2.1035054 5.078314,-2.1035054 1.983201,0 3.675977,0.7011685 5.078313,2.1035054 1.402329,1.4023368 2.103505,3.0951073 2.103505,5.0783125 z" /><text
       id="text118"
       style="font-variant:normal;font-weight:bold;font-size:8.61818123px;font-family:Verdana;-inkscape-font-specification:Verdana-Bold;writing-mode:lr-tb;fill:#000000;fill-opacity:1;fill-rule:nonzero;stroke:none"
       x="83.836502"
       y="13.645454"><tspan
         id="tspan120"
         y="13.645454"
         x="83.836502">2</tspan></text>
<text
       id="text124"
       style="font-variant:normal;font-weight:bold;font-size:8.61818123px;font-family:Verdana;-inkscape-font-specification:Verdana-Bold;writing-mode:lr-tb;fill:#000000;fill-opacity:1;fill-rule:nonzero;stroke:none"
       x="136.9595"
       y="40.936359"><tspan
         id="tspan126"
         sodipodi:role="line"
         y="40.936359"
         x="136.9595 140.88567 145.16951 150.92618 157.0658 162.17863 165.1243 170.84731 176.98692 180.91307 183.85875 186.80441 192.94403 198.05687 201.98302 206.26686 212.40646 217.47723 221.40338 224.34904 230.26562 236.40524">transient instructions</tspan></text>
<text
       id="text128"
       style="font-variant:normal;font-weight:bold;font-size:10.0545454px;font-family:Verdana;-inkscape-font-specification:Verdana-Bold;writing-mode:lr-tb;fill:#000000;fill-opacity:1;fill-rule:nonzero;stroke:none"
       x="241.51106"
       y="40.936359"><tspan
         id="tspan130"
         y="40.936359"
         x="241.51106"> </tspan></text>
<path
       inkscape:connector-curvature="0"
       id="path134"
       style="fill:#ffffff;fill-opacity:1;fill-rule:nonzero;stroke:none"
       d="m 125.32272,36.986362 c -1e-5,1.983202 -0.70118,3.675973 -2.10352,5.07831 -1.40234,1.402336 -3.0951,2.103505 -5.0783,2.103508 -1.9832,-3e-6 -3.67597,-0.701172 -5.07831,-2.103508 -1.40234,-1.402337 -2.10352,-3.095108 -2.1035,-5.07831 -2e-5,-1.983205 0.70116,-3.675977 2.1035,-5.078315 1.40234,-1.402334 3.09511,-2.103503 5.07831,-2.103503 1.9832,0 3.67596,0.701169 5.0783,2.103503 1.40234,1.402338 2.10351,3.09511 2.10352,5.078315 z" /><path
       inkscape:connector-curvature="0"
       id="path136"
       style="fill:none;stroke:#000000;stroke-width:0.71818179;stroke-linecap:butt;stroke-linejoin:miter;stroke-miterlimit:10;stroke-dasharray:none;stroke-opacity:1"
       d="m 125.32272,36.986362 c -1e-5,1.983202 -0.70118,3.675973 -2.10352,5.07831 -1.40234,1.402336 -3.0951,2.103505 -5.0783,2.103508 -1.9832,-3e-6 -3.67597,-0.701172 -5.07831,-2.103508 -1.40234,-1.402337 -2.10352,-3.095108 -2.1035,-5.07831 -2e-5,-1.983205 0.70116,-3.675977 2.1035,-5.078315 1.40234,-1.402334 3.09511,-2.103503 5.07831,-2.103503 1.9832,0 3.67596,0.701169 5.0783,2.103503 1.40234,1.402338 2.10351,3.09511 2.10352,5.078315 z" /><text
       id="text140"
       style="font-variant:normal;font-weight:bold;font-size:8.61818123px;font-family:Verdana;-inkscape-font-specification:Verdana-Bold;writing-mode:lr-tb;fill:#000000;fill-opacity:1;fill-rule:nonzero;stroke:none"
       x="115.4365"
       y="40.218182"><tspan
         id="tspan142"
         y="40.218182"
         x="115.4365">3</tspan></text>
<text
       y="12.949014"
       x="321.05972"
       id="text146"
       style="font-variant:normal;font-weight:bold;font-size:8.61818123px;font-family:Verdana;-inkscape-font-specification:Verdana-Bold;writing-mode:lr-tb;fill:#000000;fill-opacity:1;fill-rule:nonzero;stroke:none"><tspan
         y="12.949014"
         x="321.05972"
         id="tspan148"
         sodipodi:role="line">fixup</tspan></text>
<path
       inkscape:connector-curvature="0"
       id="path156"
       style="fill:#ffffff;fill-opacity:1;fill-rule:nonzero;stroke:none"
       d="m 309.89544,10.413636 c 0,1.983204 -0.70117,3.675973 -2.10349,5.078311 -1.40236,1.402337 -3.09513,2.103505 -5.07833,2.103507 -1.98321,-2e-6 -3.67601,-0.70117 -5.07834,-2.103507 -1.40234,-1.402338 -2.10349,-3.095107 -2.10347,-5.078311 -2e-5,-1.9832052 0.70113,-3.6759757 2.10347,-5.0783125 1.40233,-1.4023369 3.09513,-2.1035054 5.07834,-2.1035054 1.9832,0 3.67597,0.7011685 5.07833,2.1035054 1.40232,1.4023368 2.10349,3.0951073 2.10349,5.0783125 z" /><path
       inkscape:connector-curvature="0"
       id="path158"
       style="fill:none;stroke:#000000;stroke-width:0.71818179;stroke-linecap:butt;stroke-linejoin:miter;stroke-miterlimit:10;stroke-dasharray:none;stroke-opacity:1"
       d="m 309.89544,10.413636 c 0,1.983204 -0.70117,3.675973 -2.10349,5.078311 -1.40236,1.402337 -3.09513,2.103505 -5.07833,2.103507 -1.98321,-2e-6 -3.67601,-0.70117 -5.07834,-2.103507 -1.40234,-1.402338 -2.10349,-3.095107 -2.10347,-5.078311 -2e-5,-1.9832052 0.70113,-3.6759757 2.10347,-5.0783125 1.40233,-1.4023369 3.09513,-2.1035054 5.07834,-2.1035054 1.9832,0 3.67597,0.7011685 5.07833,2.1035054 1.40232,1.4023368 2.10349,3.0951073 2.10349,5.0783125 z" /><text
       id="text162"
       style="font-variant:normal;font-weight:bold;font-size:8.61818123px;font-family:Verdana;-inkscape-font-specification:Verdana-Bold;writing-mode:lr-tb;fill:#000000;fill-opacity:1;fill-rule:nonzero;stroke:none"
       x="300.00922"
       y="13.645454"><tspan
         id="tspan164"
         y="13.645454"
         x="300.00922">4</tspan></text>
<g
       id="g174"
       transform="matrix(0.22883126,0,0,0.239728,202.62436,3.231818)"><path
         d="m 56.22884,5.6131258 c -0.5,0.5 -1.299999,0.5 -1.799999,0 -0.5,-0.5 -0.5,-1.3000002 0,-1.8 1.2,-1.2 2.599998,-2.0999999 4.099998,-2.7 l 0.1,0 c 1.5,-0.60000008 3.2,-0.90000009 4.799999,-0.90000009 1.600002,0 3.299999,0.30000001 4.799999,0.99999999 1.5,0.6 2.900002,1.5 4.099999,2.7000001 1.199996,1.2 2.099998,2.5999996 2.699996,4.0999996 0.599999,1.5 1,3.1999996 1,4.7999996 0,0.7 -0.599998,1.3 -1.300003,1.3 -0.699997,0 -1.300003,-0.6 -1.300003,-1.3 0,-1.3 -0.300003,-2.6 -0.800003,-3.9 -0.5,-1.1999998 -1.199997,-2.3000002 -2.199997,-3.3000002 -1,-1 -2.099998,-1.7 -3.300003,-2.2 -1.199997,-0.5 -2.5,-0.8 -3.799999,-0.8 -1.299999,0 -2.599998,0.2000001 -3.799999,0.7000001 l -0.1,0 c -1.2,0.6000001 -2.299999,1.2999999 -3.2,2.2999999 l 1.5e-5,1e-6 z"
         style="fill:#000000;fill-opacity:1;fill-rule:nonzero;stroke:none"
         id="path176"
         inkscape:connector-curvature="0" /><path
         d="M 51.128841,0.51312554 59.528839,8.913125 c 0.700001,0.6999998 0.700001,1.9 0,2.6 l -5.5,5.499999 c -1.299999,-2.199999 -2.900001,-4.3 -4.799999,-6.199999 -1.900002,-1.9 -4,-3.4999999 -6.200001,-4.6999997 l 5.5,-5.49999998 c 0.700001,-0.80000001 1.900002,-0.80000001 2.599999,-0.10000002 l 3e-6,2.4e-7 z"
         style="fill:#000000;fill-opacity:1;fill-rule:evenodd;stroke:none"
         id="path178"
         inkscape:connector-curvature="0" /></g><g
       id="g180"
       transform="matrix(0.16180815,-0.16951331,0.16180815,0.16951331,202.62436,3.231818)"><path
         d="m 28.127079,42.367283 c -2e-6,8.063274 -2.850801,14.945713 -8.552402,20.647316 -5.7016,5.701603 -12.5840383,8.552402 -20.6473184,8.552402 -8.0632801,0 -14.9457186,-2.850799 -20.6473176,-8.552406 -5.701601,-5.701599 -8.552401,-12.584038 -8.552403,-20.647312 2e-6,-8.063282 2.850802,-14.945723 8.552403,-20.647322 5.701599,-5.701599 12.5840375,-8.552398 20.6473176,-8.552398 8.0632801,0 14.9457184,2.850799 20.6473194,8.552398 5.7016,5.701599 8.552399,12.58404 8.552401,20.647322 z"
         style="fill:#000000;fill-opacity:1;fill-rule:nonzero;stroke:none"
         id="path182"
         inkscape:connector-curvature="0" /></g><g
       id="g184"
       transform="matrix(0.22883126,0,0,0.239728,201.14355,-2.6143987)"><path
         d="m 84.699997,45.299999 -1.799995,8.600003 -3.599999,-8 -8.700005,0.899997 6.5,-5.899997 -3.599998,-8 7.599998,4.399997 L 87.699997,31.4 85.800003,40 93.5,44.400002 84.699997,45.299999 Z"
         style="fill:#000000;fill-opacity:1;fill-rule:evenodd;stroke:none"
         id="path186"
         inkscape:connector-curvature="0" /></g><g
       id="g196"
       transform="matrix(0.33968055,0,0,0.33515149,39.5,31.049391)"><path
         d="M 20.09198,0 C 19.643539,0 19.2136,0.17827003 18.8965,0.49536598 18.579411,0.81246299 18.40114,1.242406 18.40114,1.6908431 l 0,5.1336298 3.38168,0 0,-5.1336298 C 21.78282,0.75702006 21.025801,0 20.09198,0 Z m 6.76338,0 C 26.40691,0 25.976971,0.17827003 25.65988,0.49536598 25.342779,0.81246299 25.164509,1.242406 25.164509,1.690843 l 0,5.1336299 3.381691,0 0,-5.1336298 C 28.5462,0.75702006 27.789181,0 26.85536,0 Z m 6.763369,0 C 33.170288,0 32.740349,0.17827003 32.423248,0.49536598 32.106159,0.81246299 31.927889,1.242406 31.927889,1.690843 l 0,5.1336299 3.381681,0 0,-5.1336298 C 35.30957,0.75702006 34.552559,0 33.618729,0 Z m 6.76337,0 C 39.933659,0 39.503719,0.17827003 39.18663,0.49536598 38.86953,0.81246299 38.691261,1.242406 38.691261,1.690843 l 0,5.1336299 3.381691,0 0,-5.1336298 C 42.072948,0.75702006 41.315929,0 40.382099,0 Z m 6.763378,0 C 46.697041,0 46.267101,0.17827003 45.950001,0.49536598 45.632912,0.81246299 45.454632,1.242406 45.454632,1.6908431 l 0,5.1336298 3.381691,0 0,-5.1336298 C 48.836319,0.75702006 48.079311,0 47.145481,0 l -4e-6,0 z m 6.763371,0 C 53.460407,0 53.030468,0.17827003 52.713367,0.49536598 52.396278,0.81246299 52.218006,1.242406 52.218006,1.690843 l 0,5.1336299 3.381691,0 0,-5.1336298 C 55.599701,0.75702006 54.842682,0 53.908852,0 l -4e-6,0 z M 18.0098,10.20616 c -4.3302,0 -7.804461,3.474265 -7.804461,7.804464 l 0,37.979584 c 0,4.3302 3.474261,7.803638 7.804461,7.803638 l 37.97958,0 c 4.3302,0 7.80447,-3.473442 7.80447,-7.803638 l 0,-37.979584 c 0,-2.070467 -0.822071,-4.054321 -2.28611,-5.518359 -1.46405,-1.464048 -3.447891,-2.286105 -5.51836,-2.286105 l -37.97958,0 z m 1.189699,5.632288 c 0.891581,0 1.746481,0.353681 2.376921,0.984127 0.630449,0.630443 0.984131,1.485338 0.984131,2.376924 0,1.856623 -1.504431,3.361872 -3.36105,3.361872 -1.85663,0 -3.36187,-1.505247 -3.36187,-3.361872 0,-1.856626 1.50524,-3.361049 3.36187,-3.361049 l -2e-6,-2e-6 z M 1.69085,18.400309 C 0.75702006,18.400309 0,19.157326 0,20.091152 c 0,0.933829 0.75702006,1.690844 1.69085,1.690844 l 5.1328004,0 0,-3.381687 -5.1328004,0 z m 65.484687,0 0,3.381687 5.133621,0 C 73.242989,21.781996 74,21.024981 74,20.091152 c 0,-0.44844 -0.178268,-0.878385 -0.495361,-1.195476 -0.317101,-0.317097 -0.74704,-0.495367 -1.195481,-0.495367 l -5.133621,0 z M 1.69085,25.163683 C 0.75702006,25.163683 0,25.920698 0,26.854527 0,27.788355 0.75702006,28.54537 1.69085,28.54537 l 5.1328004,0 0,-3.381687 -5.1328004,0 z m 65.484687,0 0,3.381687 5.133621,0 C 73.242989,28.54537 74,27.788355 74,26.854527 74,26.40609 73.821732,25.976141 73.504639,25.65905 73.187538,25.341951 72.757599,25.163683 72.309158,25.163683 l -5.133621,0 z M 1.69085,31.927057 C 0.75702006,31.927057 0,32.684074 0,33.617901 c 0,0.933826 0.75702006,1.690845 1.69085,1.690845 l 5.1328004,0 0,-3.381687 -5.1328004,-2e-6 z m 65.484687,0 0,3.381686 5.133621,0 C 73.242989,35.308743 74,34.551727 74,33.617901 c 0,-0.448437 -0.178268,-0.878384 -0.495361,-1.19548 -0.317101,-0.317093 -0.74704,-0.495364 -1.195481,-0.495364 l -5.133621,0 z M 1.69085,38.69043 C 0.75702006,38.69043 0,39.447449 0,40.381275 c 0,0.933827 0.75702006,1.690846 1.69085,1.690846 l 5.1328004,0 0,-3.381687 -5.1328004,-4e-6 z m 65.484687,0 0,3.381687 5.133621,0 C 73.242989,42.072117 74,41.315102 74,40.381275 74,39.932838 73.821732,39.502892 73.504639,39.185795 73.187538,38.868702 72.757599,38.69043 72.309158,38.69043 l -5.133621,0 z M 1.69085,45.453808 C 0.75702006,45.453808 0,46.210827 0,47.144653 c 0,0.933827 0.75702006,1.690842 1.69085,1.690842 l 5.1328004,0 0,-3.381687 -5.1328004,0 z m 65.484687,0 0,3.381687 5.133621,0 C 73.242989,48.835495 74,48.07848 74,47.144653 c 0,-0.44844 -0.178268,-0.878395 -0.495361,-1.19548 -0.317101,-0.317101 -0.74704,-0.495361 -1.195481,-0.495361 l -5.133621,-4e-6 z M 1.69085,52.217182 C 0.75702006,52.217182 0,52.974197 0,53.908028 c 0,0.933826 0.75702006,1.690841 1.69085,1.690841 l 5.1328004,0 0,-3.381687 -5.1328004,0 z m 65.484687,0 0,3.381687 5.133621,0 C 73.242989,55.598869 74,54.841854 74,53.908028 c 0,-0.448441 -0.178268,-0.878392 -0.495361,-1.195481 -0.317101,-0.3171 -0.74704,-0.495361 -1.195481,-0.495361 l -5.133621,-4e-6 z m -48.774399,14.958355 0,5.133621 c 0,0.933831 0.75701,1.690842 1.69084,1.690842 0.933821,0 1.69084,-0.757019 1.69084,-1.690842 l 0,-5.133621 -3.38168,0 z m 6.763371,0 0,5.133621 c 0,0.933831 0.757021,1.690842 1.690849,1.690842 0.933821,0 1.69084,-0.757019 1.69084,-1.690842 l 0,-5.133621 -3.381689,0 z m 6.76338,0 0,5.133621 c 0,0.933831 0.757009,1.690842 1.69084,1.690842 0.93383,0 1.690841,-0.757019 1.690841,-1.690842 l 0,-5.133621 -3.381681,0 z m 6.763368,0 0,5.133621 c 0,0.933831 0.75702,1.690842 1.690842,1.690842 0.93383,0 1.690849,-0.757019 1.690849,-1.690842 l 0,-5.133621 -3.381691,0 z m 6.763371,0 0,5.133621 c 0,0.933831 0.757019,1.690842 1.690849,1.690842 0.933831,0 1.690842,-0.757019 1.690842,-1.690842 l 0,-5.133621 -3.381691,0 z m 6.763382,0 0,5.133621 c 0,0.933831 0.757011,1.690842 1.690842,1.690842 0.93383,0 1.690849,-0.757019 1.690849,-1.690842 l 0,-5.133621 -3.381691,0 z"
         style="fill:#000000;fill-opacity:1;fill-rule:evenodd;stroke:none"
         id="path198"
         inkscape:connector-curvature="0" /></g><g
       id="g208"
       transform="matrix(0.71818179,0,0,0.71818179,0.35909089,0.35909089)"><path
         d="m 168.05,71 208.90001,0 C 379.64999,71 381,72.349998 381,75.050003 l 0,18.899994 C 381,96.650002 379.64999,98 376.95001,98 L 168.05,98 C 165.35001,98 164,96.650002 164,93.949997 l 0,-18.899994 C 164,72.349998 165.35001,71 168.05,71 Z"
         style="fill:#f8cecc;fill-opacity:1;fill-rule:nonzero;stroke:none"
         id="path210"
         inkscape:connector-curvature="0" /><path
         d="m 168.05,71 208.90001,0 C 379.64999,71 381,72.349998 381,75.050003 l 0,18.899994 C 381,96.650002 379.64999,98 376.95001,98 L 168.05,98 C 165.35001,98 164,96.650002 164,93.949997 l 0,-18.899994 C 164,72.349998 165.35001,71 168.05,71 Z"
         style="fill:none;stroke:#b85450;stroke-width:1;stroke-linecap:butt;stroke-linejoin:miter;stroke-miterlimit:10;stroke-dasharray:none;stroke-opacity:1"
         id="path212"
         inkscape:connector-curvature="0" /><path
         d="m 208.05,108.5 208.90001,0 c 2.69998,0 4.04999,1.35 4.04999,4.05 l 0,18.9 c 0,2.69999 -1.35001,4.05 -4.04999,4.05 l -208.90001,0 c -2.69999,0 -4.05,-1.35001 -4.05,-4.05 l 0,-18.9 c 0,-2.7 1.35001,-4.05 4.05,-4.05 z"
         style="fill:#f8cecc;fill-opacity:1;fill-rule:nonzero;stroke:none"
         id="path214"
         inkscape:connector-curvature="0" /><path
         d="m 208.05,108.5 208.90001,0 c 2.69998,0 4.04999,1.35 4.04999,4.05 l 0,18.9 c 0,2.69999 -1.35001,4.05 -4.04999,4.05 l -208.90001,0 c -2.69999,0 -4.05,-1.35001 -4.05,-4.05 l 0,-18.9 c 0,-2.7 1.35001,-4.05 4.05,-4.05 z"
         style="fill:none;stroke:#b85450;stroke-width:1;stroke-linecap:butt;stroke-linejoin:miter;stroke-miterlimit:10;stroke-dasharray:none;stroke-opacity:1"
         id="path216"
         inkscape:connector-curvature="0" /></g><g
       id="g226"
       transform="matrix(0.72355682,0,0,0.72355682,179.18636,59.258991)"><path
         d="M 41.368,18.302999 61.771999,3.816 C 61.636002,3.76 61.495998,3.717 61.348,3.7019999 L 24.145,0 41.368,18.302999 Z"
         style="fill:#000000;fill-opacity:1;fill-rule:nonzero;stroke:none"
         id="path228"
         inkscape:connector-curvature="0" /></g><g
       id="g230"
       transform="matrix(0.72355682,0,0,0.72355682,178.35426,47.574272)"><path
         d="M 50.258999,32.633999 61.382,46.209999 63.681999,23.104 l -13.423,9.529999 z"
         style="fill:#000000;fill-opacity:1;fill-rule:nonzero;stroke:none"
         id="path232"
         inkscape:connector-curvature="0" /></g><g
       id="g234"
       transform="matrix(0.72355682,0,0,0.72355682,179.18636,59.258991)"><path
         d="m 46.657001,18.226 -4.618,3.278999 c -0.068,0.049 -0.144001,0.072 -0.215999,0.107001 -0.053,0.025 -0.101002,0.058 -0.153999,0.077 -0.161999,0.058 -0.328999,0.093 -0.497002,0.093 0,0 0,0 -0.001,0 -0.109001,0 -0.219001,-0.015 -0.326,-0.038 -0.031,-0.007 -0.061,-0.02 -0.092,-0.028 -0.074,-0.021 -0.146999,-0.047 -0.219002,-0.08 -0.036,-0.017 -0.069,-0.038 -0.104,-0.058 -0.063,-0.035 -0.122001,-0.074 -0.179001,-0.118999 -0.034,-0.026 -0.066,-0.055 -0.099,-0.084 -0.023,-0.022 -0.051,-0.04 -0.074,-0.064 l -3.881,-4.125 -14.514,11.880001 36.776001,3.66 c 0.027,0.003 0.055,0.003 0.082,0.004 L 46.657001,18.226 Z"
         style="fill:#000000;fill-opacity:1;fill-rule:nonzero;stroke:none"
         id="path236"
         inkscape:connector-curvature="0" /></g><g
       id="g238"
       transform="matrix(0.72355682,0,0,0.72355682,178.35426,47.574272)"><path
         d="m 23.313999,18.421 -2.441,24.518999 14.413,-11.794999 -11.972,-12.724 z"
         style="fill:#000000;fill-opacity:1;fill-rule:nonzero;stroke:none"
         id="path240"
         inkscape:connector-curvature="0" /></g><g
       id="g242"
       transform="matrix(0.72355682,0,0,0.72355682,179.18636,59.258991)"><path
         d="m 17.75,10.351 -16.25,0 C 0.671,10.351 0,9.6800003 0,8.8509998 c 0,-0.8289995 0.671,-1.5 1.5,-1.5 l 16.25,0 c 0.829,0 1.5,0.6709996 1.5,1.5 0,0.8290005 -0.671,1.5000002 -1.5,1.5000002 z"
         style="fill:#000000;fill-opacity:1;fill-rule:nonzero;stroke:none"
         id="path244"
         inkscape:connector-curvature="0" /><path
         d="m 17.75,15.351 -11.875,0 c -0.829,0 -1.5,-0.671 -1.5,-1.5 0,-0.829001 0.671,-1.5 1.5,-1.5 l 11.875,0 c 0.829,0 1.5,0.670999 1.5,1.5 0,0.829 -0.671,1.5 -1.5,1.5 z"
         style="fill:#000000;fill-opacity:1;fill-rule:nonzero;stroke:none"
         id="path246"
         inkscape:connector-curvature="0" /><path
         d="m 17.75,20.351 -8.125,0 c -0.8290005,0 -1.5,-0.672001 -1.5,-1.5 0,-0.827999 0.6709995,-1.5 1.5,-1.5 l 8.125,0 c 0.829,0 1.5,0.672001 1.5,1.5 0,0.827999 -0.671,1.5 -1.5,1.5 z"
         style="fill:#000000;fill-opacity:1;fill-rule:nonzero;stroke:none"
         id="path248"
         inkscape:connector-curvature="0" /><path
         d="m 17.75,25.351 -4.063,0 c -0.829,0 -1.5,-0.672001 -1.5,-1.5 0,-0.827999 0.671,-1.5 1.5,-1.5 l 4.063,0 c 0.829,0 1.5,0.672001 1.5,1.5 0,0.827999 -0.671,1.5 -1.5,1.5 z"
         style="fill:#000000;fill-opacity:1;fill-rule:nonzero;stroke:none"
         id="path250"
         inkscape:connector-curvature="0" /></g><g
       id="g260"
       transform="matrix(0.71818179,0,0,0.71818179,0.35909089,0.35909089)"><path
         d="m 11,159 523.63,0"
         style="fill:none;stroke:#000000;stroke-width:1;stroke-linecap:butt;stroke-linejoin:miter;stroke-miterlimit:10;stroke-dasharray:none;stroke-opacity:1"
         id="path262"
         inkscape:connector-curvature="0" /><path
         d="m 539.88,159 -7,3.5 1.75,-3.5 -1.75,-3.5 7,3.5 z"
         style="fill:#000000;fill-opacity:1;fill-rule:nonzero;stroke:none"
         id="path264"
         inkscape:connector-curvature="0" /><path
         d="m 539.88,159 -7,3.5 1.75,-3.5 -1.75,-3.5 7,3.5 z"
         style="fill:none;stroke:#000000;stroke-width:1;stroke-linecap:butt;stroke-linejoin:miter;stroke-miterlimit:10;stroke-dasharray:none;stroke-opacity:1"
         id="path266"
         inkscape:connector-curvature="0" /></g><g
       id="g268"
       transform="matrix(0.71818179,0,0,0.71818179,362.68179,113.47272)"><text
         transform="translate(0.390625,11)"
         style="font-variant:normal;font-weight:bold;font-size:10px;font-family:Verdana;-inkscape-font-specification:Verdana-Bold;writing-mode:lr-tb;fill:#000000;fill-opacity:1;fill-rule:nonzero;stroke:none"
         id="text270"><tspan
           x="0 4.5556641 7.9736328 18.554688"
           y="0"
           sodipodi:role="line"
           id="tspan272">time</tspan></text>
</g><g
       id="g274"
       transform="matrix(0.71818179,0,0,0.71818179,0.35909089,0.35909089)"><path
         d="m 140.5,159 0,-3 1,0 0,3 m -1,-6 0,-3 1,0 0,3 m -1,-6 0,-3 1,0 0,3 m -1,-6 0,-3 1,0 0,3 m -1,-6 0,-3 1,0 0,3 m -1,-6 0,-3 1,0 0,3 m -1,-6 0,-3 1,0 0,3 m -1,-6 0,-3 1,0 0,3 m -1,-6 0,-3 1,0 0,3 m -1,-6 0,-3 1,0 0,3 m -1,-6 0,-3 1,0 0,3 m -1,-6 0,-3 1,0 0,3 m -1,-6 0,-3 1,0 0,3 m -1,-6 0,-3 1,0 0,3 m -1,-6 0,-3 1,0 0,3 m -1,-6 0,-3 1,0 0,3 m -1,-6 0,-3 1,0 0,3"
         style="fill:#000000;fill-opacity:1;fill-rule:nonzero;stroke:none"
         id="path276"
         inkscape:connector-curvature="0" /><path
         d="m 420.5,159.00064 -0.004,-3 1,-0.001 0.004,3 m -1.00763,-5.99872 -0.004,-3 1,-0.001 0.004,3 m -1.00766,-5.9987 -0.004,-3 1,-10e-4 0.004,3 m -1.00763,-5.99871 -0.004,-3 1,-0.001 0.004,3 m -1.00766,-5.99871 -0.004,-3 1,-0.001 0.004,3 m -1.00763,-5.99871 -0.004,-3 1,-10e-4 0.004,2.99998 m -1.00763,-5.99871 -0.004,-3 1,-10e-4 0.004,3 m -1.00766,-5.99874 -0.004,-3 1,-10e-4 0.004,3 m -1.00763,-5.99874 -0.004,-2.99999 1,-10e-4 0.004,2.99999 m -1.00766,-5.99873 -0.004,-2.99999 1,-10e-4 0.004,3 m -1.00763,-5.998731 -0.004,-3 1,-0.0013 0.004,3 m -1.00766,-5.998734 -0.004,-3 1,-0.0013 0.004,3 m -1.00763,-5.998726 -0.004,-3 1,-0.0013 0.004,3 m -1.00762,-5.998733 -0.004,-2.999993 1,-0.0013 0.004,2.999992 m -1.00766,-5.998726 -0.004,-3 1,-0.0013 0.004,3 m -1.00763,-5.998734 -0.004,-2.999992 1,-0.0013 0.004,2.999993 m -1.00766,-5.998722 -0.004,-3 1,-0.0013 0.004,3 m -1.00763,-5.998719 -0.004,-3 1,-0.0013 0.004,3 m -1.00763,-5.998726 -0.002,-1.930084 1,-0.0013 0.002,1.930084"
         style="fill:#000000;fill-opacity:1;fill-rule:nonzero;stroke:none"
         id="path278"
         inkscape:connector-curvature="0" /><path
         d="m 420.5,159 0,-3 1,0 0,3 m -1,-6 0,-3 1,0 0,3 m -1,-6 0,-3 1,0 0,3 m -1,-6 0,-3 1,0 0,3 m -1,-6 0,-3 1,0 0,3 m -1,-6 0,-3 1,0 0,3 m -1,-6 0,-3 1,0 0,3 m -1,-6 0,-3 1,0 0,3 m -1,-6 0,-3 1,0 0,3 m -1,-6 0,-3 1,0 0,3 m -1,-6 0,-3 1,0 0,3 m -1,-6 0,-3 1,0 0,3 m -1,-6 0,-3 1,0 0,3 m -1,-6 0,-3 1,0 0,3 m -1,-6 0,-3 1,0 0,3 m -1,-6 0,-3 1,0 0,3 m -1,-6 0,-3 1,0 0,3 m -1,-6 0,-3 1,0 0,3 m -1,-6 0,-3 1,0 0,3 m -1,-6 0,-3 1,0 0,3 m -1,-6 0,-3 1,0 0,3 m -1,-6 0,-3 1,0 0,3 m -1,-6 0,-3 1,0 0,3"
         style="fill:#000000;fill-opacity:1;fill-rule:nonzero;stroke:none"
         id="path280"
         inkscape:connector-curvature="0" /></g><g
       id="g282"
       transform="matrix(0.71818179,0,0,0.71818179,29.445454,103.41818)"><text
         transform="translate(0.015625,11)"
         style="font-style:italic;font-variant:normal;font-size:10px;font-family:Verdana;-inkscape-font-specification:Verdana-Italic;writing-mode:lr-tb;fill:#000000;fill-opacity:1;fill-rule:nonzero;stroke:none"
         id="text284"><tspan
           x="0 6.0058594 10.273438 15.483398 21.811523 24.555664 28.496094 34.453125 39.663086 43.603516 49.931641 54.199219 60.205078"
           y="0"
           sodipodi:role="line"
           id="tspan286">architectural</tspan></text>
</g><g
       id="g288"
       transform="matrix(0.71818179,0,0,0.71818179,318.15454,103.41818)"><text
         transform="translate(0.015625,11)"
         style="font-style:italic;font-variant:normal;font-size:10px;font-family:Verdana;-inkscape-font-specification:Verdana-Italic;writing-mode:lr-tb;fill:#000000;fill-opacity:1;fill-rule:nonzero;stroke:none"
         id="text290"><tspan
           x="0 6.0058594 10.273438 15.483398 21.811523 24.555664 28.496094 34.453125 39.663086 43.603516 49.931641 54.199219 60.205078"
           y="0"
           sodipodi:role="line"
           id="tspan292">architectural</tspan></text>
</g><g
       id="g294"
       transform="matrix(0.71818179,0,0,0.71818179,160.15454,103.41818)"><text
         transform="translate(0.140625,11)"
         style="font-style:italic;font-variant:normal;font-size:10px;font-family:Verdana;-inkscape-font-specification:Verdana-Italic;writing-mode:lr-tb;fill:#000000;fill-opacity:1;fill-rule:nonzero;stroke:none"
         id="text296"><tspan
           x="0 3.9404297 8.2080078 14.213867 20.541992 25.751953 28.496094 34.453125 40.78125 44.72168 48.237305 54.194336 60.112305 66.069336 71.279297 77.607422 81.547852 84.291992 90.361328"
           y="0"
           sodipodi:role="line"
           id="tspan298">transient execution</tspan></text>
<text
         transform="translate(96.828125,11)"
         style="font-style:italic;font-variant:normal;font-size:10px;font-family:Verdana;-inkscape-font-specification:Verdana-Italic;writing-mode:lr-tb;fill:#000000;fill-opacity:1;fill-rule:nonzero;stroke:none"
         id="text300"><tspan
           x="0"
           y="0"
           id="tspan302"> </tspan></text>
</g><g
       id="g4581"
       transform="translate(0,-4.8)"><path
         d="m 330.87549,26.71123 -0.53163,2.656679 -6.90969,0.245982 -0.0411,2.616652 1.51228,0.449027 1.39038,17.581534 1.26775,0.817272 11.1609,-0.04112 1.39001,-1.144398 1.35036,-17.213289 1.51264,-0.121899 0.0411,-2.699254 -6.74595,-0.244526 -0.81873,-2.94378 -4.57832,0.04112 0,-1e-6 z"
         style="fill:#ffffff;fill-opacity:1;fill-rule:nonzero;stroke:none"
         id="path314"
         inkscape:connector-curvature="0" /><path
         d="m 330.87549,26.71123 -0.53163,2.656679 -6.90969,0.245982 -0.0411,2.616652 1.51228,0.449027 1.39038,17.581534 1.26775,0.817272 11.1609,-0.04112 1.39001,-1.144398 1.35036,-17.213289 1.51264,-0.121899 0.0411,-2.699254 -6.74595,-0.244526 -0.81873,-2.94378 -4.57832,0.04112 0,-1e-6 z"
         style="fill:none;stroke:#000000;stroke-width:0.36387885;stroke-linecap:butt;stroke-linejoin:miter;stroke-miterlimit:10;stroke-dasharray:none;stroke-opacity:1"
         id="path316"
         inkscape:connector-curvature="0" /><path
         d="m 329.87883,48.497019 c 0,0 0.0287,0 0.0287,0 0.38062,-0.02693 0.65353,-0.326762 0.6266,-0.7092 L 329.8519,35.862418 c -0.0269,-0.382436 -0.32676,-0.655345 -0.7092,-0.628418 -0.38244,0.02693 -0.65535,0.326764 -0.62842,0.7092 l 0.68227,11.92722 c 0.0288,0.326763 0.32859,0.626599 0.68228,0.626599 z"
         style="fill:#000000;fill-opacity:1;fill-rule:nonzero;stroke:none"
         id="path318"
         inkscape:connector-curvature="0" /><path
         d="m 333.23634,48.497019 c 0.38243,0 0.68227,-0.299836 0.68227,-0.682273 l 0,-11.9254 c 0,-0.382438 -0.29984,-0.682273 -0.68227,-0.682273 -0.38244,0 -0.68228,0.299835 -0.68228,0.682273 l 0,11.9254 c 0,0.382437 0.29984,0.682273 0.68228,0.682273 z"
         style="fill:#000000;fill-opacity:1;fill-rule:nonzero;stroke:none"
         id="path320"
         inkscape:connector-curvature="0" /><path
         d="m 336.53817,48.497019 c 0,0 0.0269,0 0.0269,0 0.35551,0 0.65535,-0.272909 0.68227,-0.626599 l 0.68228,-11.927221 c 0.0287,-0.382437 -0.27291,-0.682273 -0.6266,-0.7092 -0.38244,-0.02693 -0.68228,0.272909 -0.7092,0.628419 l -0.68228,11.925402 c -0.0287,0.35551 0.27291,0.682273 0.6266,0.709199 z"
         style="fill:#000000;fill-opacity:1;fill-rule:nonzero;stroke:none"
         id="path322"
         inkscape:connector-curvature="0" /><path
         d="m 342.29619,28.930163 -5.48511,0 -0.38243,-1.746983 c -0.16339,-0.764873 -0.87259,-1.337618 -1.66439,-1.337618 l -3.05585,-0.02693 c -0.7918,0 -1.47407,0.545818 -1.66438,1.310692 l -0.40937,1.800836 -5.45818,0 c -0.90133,0 -1.63745,0.736127 -1.63745,1.637455 l 0,1.118563 c 0,0.901328 0.73612,1.637455 1.63745,1.637455 l 0.24416,0 1.17424,16.019037 c 0.10953,1.337619 1.22809,2.402327 2.56571,2.402327 l 10.12457,0 c 1.33761,0 2.48311,-1.06471 2.56571,-2.402327 l 1.17241,-16.045966 0.24598,0 c 0.90133,0 1.63746,-0.737946 1.63746,-1.637455 l 0,-1.118563 c 0.0269,-0.874401 -0.7092,-1.610528 -1.61053,-1.610528 l 0,2e-6 z m -10.94329,-1.501 c 0.0269,-0.163382 0.19213,-0.272909 0.35551,-0.272909 l 3.08278,0.02693 c 0.1652,0 0.30166,0.109527 0.35551,0.272909 l 0.32677,1.474073 -4.44733,0 0.32676,-1.501 0,0 z m 8.18727,21.832732 c -0.0539,0.655346 -0.59967,1.145491 -1.22809,1.145491 l -10.12456,0 c -0.65535,0 -1.17424,-0.490145 -1.22809,-1.145491 l -1.17424,-15.938259 14.90229,0 -1.14731,15.938256 0,3e-6 z m 3.02893,-17.575714 c 0,0.163382 -0.13645,0.272909 -0.27291,0.272909 l -18.11971,0 c -0.1652,0 -0.27291,-0.136454 -0.27291,-0.272909 l 0,-1.118563 c 0,-0.163382 0.13646,-0.272909 0.27291,-0.272909 l 18.11971,0 c 0.1652,0 0.27291,0.136454 0.27291,0.272909 l 0,1.118563 z"
         style="fill:#000000;fill-opacity:1;fill-rule:nonzero;stroke:none"
         id="path324"
         inkscape:connector-curvature="0" /></g><g
       id="g334"
       transform="matrix(0.36627272,0,0,0.36627272,7.8999996,43.090908)"><path
         d="m 29.669001,21.556999 c 2.221,-7.196 4.317999,-8.119 5.898,-8.119 1.401001,0 3.049,0.753 4.955002,1.625 2.688,1.23 5.737999,2.625001 9.477001,2.625001 3.741001,0 6.789002,-1.395001 9.479,-2.625 1.907002,-0.873 3.554001,-1.625 4.955002,-1.625 1.580002,0 3.679001,0.923 5.898003,8.118999 C 73.99501,33.426998 78.333008,41.111 80.602005,44.653 l 1.286003,1.902 c 0.02,0.027 0.048,0.066 0.065,0.091 -0.032,0.282001 -0.111001,0.565998 -0.237,0.848999 -0.014,0.032 -0.035,0.065 -0.051,0.097 -0.052,0.110001 -0.105004,0.219002 -0.170998,0.327 -2.296997,3.789001 -12.761002,7.397999 -27.751,7.922001 -1.220001,0.042 -2.466999,0.066 -3.743999,0.066 -1.277,0 -2.522999,-0.024 -3.742001,-0.066 -2.134998,-0.074 -4.18,-0.209999 -6.119999,-0.401001 -0.116001,-0.011 -0.229,-0.024 -0.345001,-0.037 -0.895,-0.092 -1.77,-0.192001 -2.618,-0.306999 -0.086,-0.012 -0.167999,-0.023 -0.252998,-0.036 -5.635,-0.773998 -10.234001,-2.021 -13.480999,-3.494999 -0.177,-0.08 -0.344999,-0.161998 -0.513001,-0.243999 -0.094,-0.046 -0.191,-0.089 -0.283001,-0.133999 -0.096,-0.049 -0.184999,-0.099 -0.277999,-0.146999 -0.154,-0.08 -0.312001,-0.16 -0.458001,-0.240002 -0.065,-0.037 -0.125,-0.074 -0.187999,-0.111 -0.165001,-0.094 -0.331,-0.188 -0.486,-0.284 -1.935,-1.196 -3.042,-2.485001 -3.185,-3.757 0.01,-0.015 0.027,-0.041 0.039,-0.057 l 1.311001,-1.937 C 21.667,41.112 26.004999,33.428001 29.669001,21.556999 Z"
         style="fill:#000000;fill-opacity:1;fill-rule:nonzero;stroke:none"
         id="path336"
         inkscape:connector-curvature="0" /><path
         d="m 77.536003,68.825996 c -6.098999,1.274002 -13.233002,2.126 -20.993999,2.434998 -0.178002,0.009 -0.355,0.014 -0.533001,0.021 -0.504002,0.019 -1.008,0.036 -1.515999,0.05 -0.360001,0.01 -0.722,0.017 -1.082001,0.024 -0.369999,0.008 -0.736999,0.017 -1.109001,0.021 -0.765999,0.011 -1.533001,0.018 -2.303001,0.018 -0.770001,0 -1.535,-0.007 -2.300999,-0.018 -0.373001,-0.005 -0.741001,-0.014 -1.111,-0.021 -0.360001,-0.008 -0.721001,-0.014 -1.080002,-0.024 -0.509998,-0.014 -1.014,-0.031 -1.518002,-0.05 -0.178001,-0.007 -0.354,-0.012 -0.528999,-0.021 C 35.695,70.951996 28.559999,70.099991 22.459,68.824997 21.302,68.585999 20.175999,68.328995 19.087,68.057999 l 0,6.816002 c 0.947,1.554 7.506,11.687004 17.066,11.687004 3.424,0 6.915001,-1.299004 10.376999,-3.862 0.186001,-0.143997 1.992,-1.512001 3.470001,-1.512001 1.478001,0 3.284,1.368004 3.485001,1.524002 3.446998,2.551003 6.937999,3.849999 10.361,3.849999 9.562996,0 16.118995,-10.133004 17.067001,-11.686997 l 0,-6.816002 c -1.090004,0.271996 -2.218002,0.527993 -3.376999,0.76799 z M 42.747002,79.232002 c -0.224999,0.671997 -2.064,1.459999 -6.466999,1.364998 -6.604,-0.138 -9.129,-4.579002 -9.934,-6.587997 1.083,-0.127999 2.159,-0.192002 3.212999,-0.192002 7.309002,0 11.581001,3.109002 11.620998,3.139 1.093998,0.823998 1.738999,1.760002 1.567002,2.276001 z m 20.972,1.365998 c -4.396,0.097 -6.242001,-0.693001 -6.466,-1.364998 -0.174,-0.515999 0.471001,-1.452004 1.563,-2.275002 0.042,-0.03 4.314999,-3.139999 11.624,-3.139999 1.051003,0 2.123002,0.064 3.203003,0.191002 -0.822006,2.000999 -3.383003,6.451996 -9.924003,6.588997 z"
         style="fill:#000000;fill-opacity:1;fill-rule:nonzero;stroke:none"
         id="path338"
         inkscape:connector-curvature="0" /><path
         d="m 82.724998,65.717003 -1.137001,0.299003 c -7.569,2.005997 -17.065002,3.224999 -27.117,3.504998 -0.195,0.006 -0.393002,0.009 -0.589001,0.014 -0.518001,0.013 -1.035,0.024 -1.555,0.031 -0.770001,0.011 -1.542999,0.019 -2.327999,0.019 -0.783001,0 -1.556999,-0.008 -2.326,-0.019 -0.521,-0.007 -1.037999,-0.019 -1.557,-0.031 -0.194999,-0.005 -0.393001,-0.008 -0.585998,-0.014 -10.053002,-0.279999 -19.549,-1.499001 -27.118,-3.504998 l -1.138001,-0.300003 0,0.001 C 8.3809996,63.183998 3.24,59.738998 3.24,56.414001 c 0,-3.213001 4.8719995,-6.548999 13.104,-9.015998 0.012,0.048 0.031,0.094 0.045,0.140998 0.026,0.095 0.057,0.188 0.089,0.282002 0.039,0.111 0.08,0.221001 0.128,0.330002 0.04,0.093 0.083,0.185001 0.129999,0.276001 0.054,0.108001 0.113001,0.214 0.174999,0.319999 0.054,0.09 0.108,0.180001 0.167,0.268002 0.07,0.105 0.146,0.209 0.223,0.313 0.066,0.087 0.132999,0.174 0.202999,0.258999 0.085,0.103 0.176,0.203998 0.268999,0.304 0.077,0.085 0.155001,0.168 0.236999,0.251 0.100001,0.1 0.207001,0.198002 0.314,0.296001 0.088,0.081 0.174999,0.161 0.267999,0.240002 0.115,0.098 0.238001,0.193001 0.360001,0.290001 0.099,0.076 0.193001,0.153999 0.295999,0.229 0.131001,0.096 0.270001,0.188999 0.407999,0.283001 0.105,0.072 0.209,0.146 0.318001,0.216999 0.148001,0.096 0.306,0.188 0.461001,0.282002 0.111,0.067 0.219,0.134998 0.333999,0.2 0.172001,0.098 0.352,0.193001 0.531,0.287998 0.109,0.059 0.215001,0.118001 0.327,0.175999 0.212,0.108002 0.434,0.213001 0.655001,0.317002 0.09,0.043 0.174,0.087 0.266001,0.127998 0.318,0.146 0.645,0.287998 0.981,0.428001 0.046,0.019 0.096,0.037 0.143,0.056 0.292,0.119 0.589001,0.236 0.893999,0.351002 0.124001,0.047 0.254,0.091 0.381001,0.137001 0.233999,0.084 0.467001,0.169998 0.708999,0.250999 0.15,0.052 0.307,0.1 0.459,0.148999 0.225,0.073 0.448,0.146999 0.679001,0.219001 0.167,0.051 0.339001,0.101002 0.509001,0.150002 0.225,0.067 0.447,0.133999 0.677999,0.198002 0.178,0.049 0.358999,0.097 0.539,0.146 0.229,0.062 0.457,0.123001 0.69,0.183998 0.187,0.047 0.376,0.093 0.565001,0.139 0.232,0.058 0.466999,0.113998 0.702999,0.168998 0.195999,0.045 0.396,0.088 0.594,0.132 0.236999,0.054 0.475,0.104 0.715,0.154999 0.201,0.042 0.404001,0.082 0.607,0.123001 0.244,0.05 0.488999,0.097 0.736,0.144001 0.207001,0.039 0.414002,0.077 0.623001,0.113999 0.25,0.045 0.499001,0.09 0.751999,0.132 0.210999,0.036 0.425999,0.072 0.64,0.104999 0.252998,0.041 0.506,0.08 0.761001,0.119 0.216999,0.033 0.433998,0.064 0.652001,0.097 0.259998,0.037 0.52,0.072 0.780998,0.106998 0.219002,0.028 0.437,0.058 0.655998,0.085 0.264,0.034 0.528,0.064 0.793999,0.096 0.222999,0.026 0.445999,0.053 0.669998,0.076 0.264999,0.03 0.532001,0.057 0.799,0.083 0.226002,0.023 0.450001,0.046 0.676998,0.067 0.271,0.024 0.544998,0.048 0.816002,0.07 0.227001,0.02 0.451,0.039 0.675999,0.056 0.277999,0.022 0.556999,0.04 0.835998,0.06 0.221001,0.016 0.443001,0.032 0.666,0.045 0.289002,0.019 0.578,0.033 0.867001,0.049 0.215,0.011 0.43,0.023 0.645,0.034 0.305001,0.014 0.608002,0.024 0.911999,0.035 0.202,0.008 0.404,0.017 0.605,0.022 0.333,0.011 0.666,0.018 1,0.024 0.175998,0.003 0.348999,0.01 0.522999,0.012 0.506,0.008 1.012001,0.012 1.518001,0.012 0.506001,0 1.013001,-0.004 1.520001,-0.012 0.173999,-0.002 0.347999,-0.009 0.520999,-0.012 0.334,-0.007 0.668,-0.014 1.001,-0.024 0.202,-0.006 0.403,-0.015 0.604999,-0.022 0.304001,-0.011 0.608002,-0.021 0.91,-0.035 0.216,-0.011 0.432,-0.023 0.646,-0.034 0.290001,-0.016 0.578999,-0.03 0.867001,-0.049 0.223999,-0.013 0.444,-0.029 0.667999,-0.045 0.277,-0.019 0.556999,-0.037 0.834,-0.06 0.226001,-0.017 0.45,-0.036 0.674999,-0.056 0.272999,-0.022 0.546001,-0.046 0.817001,-0.07 0.226002,-0.021 0.451,-0.044 0.677002,-0.067 0.268002,-0.026 0.534001,-0.053 0.799999,-0.083 0.224999,-0.023 0.446,-0.05 0.668,-0.076 0.266998,-0.031 0.532001,-0.062 0.796001,-0.096 0.220001,-0.027 0.438,-0.057 0.654,-0.085 0.263,-0.035 0.523998,-0.07 0.784,-0.106998 0.217998,-0.032 0.434002,-0.063 0.648998,-0.097 0.255997,-0.038 0.509003,-0.078 0.762001,-0.119 0.214997,-0.033 0.428002,-0.069 0.641998,-0.104999 0.251999,-0.042 0.501,-0.087 0.751,-0.132 0.208,-0.037 0.415001,-0.075 0.622002,-0.113999 0.248001,-0.047 0.491996,-0.094 0.736,-0.143001 0.203003,-0.042 0.406997,-0.082 0.608001,-0.124001 0.239998,-0.051 0.477997,-0.103001 0.713997,-0.154999 0.197998,-0.044 0.398003,-0.087 0.594002,-0.132 0.237999,-0.055 0.472,-0.111 0.705002,-0.168998 0.188003,-0.046 0.377998,-0.092 0.563003,-0.139 0.234002,-0.061 0.462998,-0.122002 0.692002,-0.183998 0.18,-0.049 0.36,-0.097 0.537002,-0.146 0.230004,-0.064 0.455002,-0.131001 0.681,-0.198002 0.168999,-0.05 0.339996,-0.1 0.505997,-0.150002 0.231003,-0.071 0.455002,-0.146 0.68,-0.219001 0.152,-0.05 0.308998,-0.098 0.459,-0.148999 0.242996,-0.082 0.477997,-0.167999 0.713997,-0.252998 0.124,-0.045 0.252998,-0.088 0.375,-0.134998 0.311996,-0.116002 0.611999,-0.234002 0.908996,-0.355999 0.042,-0.018 0.086,-0.033 0.126999,-0.05 0.336998,-0.139999 0.665001,-0.282001 0.982002,-0.428001 0.089,-0.041 0.170998,-0.084 0.258004,-0.124001 0.224998,-0.105999 0.448997,-0.213001 0.663002,-0.321998 0.111,-0.057 0.216003,-0.115002 0.322998,-0.173001 0.180999,-0.096 0.362999,-0.191001 0.533996,-0.29 0.114998,-0.065 0.223999,-0.133 0.334999,-0.200001 0.154999,-0.094 0.313004,-0.187 0.459999,-0.282002 0.111,-0.071 0.213997,-0.145 0.319001,-0.216999 0.139,-0.094 0.276001,-0.187999 0.406997,-0.283001 0.102997,-0.075 0.198998,-0.153 0.296997,-0.229 0.122002,-0.097 0.244004,-0.192001 0.359002,-0.290001 0.094,-0.079 0.180999,-0.159 0.268997,-0.238998 0.108001,-0.099 0.213997,-0.196999 0.315002,-0.297001 0.081,-0.083 0.158997,-0.166 0.234001,-0.25 0.094,-0.1 0.185997,-0.202 0.271004,-0.305 0.071,-0.085 0.137001,-0.172001 0.202004,-0.258999 0.078,-0.104 0.153999,-0.207001 0.222999,-0.313 0.06,-0.088 0.113999,-0.176998 0.167,-0.266998 0.063,-0.105999 0.121002,-0.213001 0.177002,-0.320999 0.046,-0.091 0.089,-0.182999 0.128998,-0.273999 0.047,-0.11 0.089,-0.220001 0.126999,-0.331001 0.034,-0.094 0.063,-0.188 0.091,-0.282001 0.012,-0.047 0.032,-0.093 0.044,-0.140999 8.231003,2.466999 13.104004,5.803001 13.104004,9.015999 0.002,3.322982 -5.138993,6.767982 -14.032998,9.300987 z"
         style="fill:#000000;fill-opacity:1;fill-rule:nonzero;stroke:none"
         id="path340"
         inkscape:connector-curvature="0" /></g></g></svg>