<svg id="Layer_1" data-name="Layer 1" xmlns="http://www.w3.org/2000/svg" viewBox="0 0 757.9 724.66"><defs><style>.cls-1,.cls-3{fill:#d00029;}.cls-2,.cls-4{fill:none;stroke-linecap:round;stroke-linejoin:round;}.cls-2,.cls-3,.cls-4{stroke:#d00029;}.cls-2{stroke-width:10px;}.cls-3{stroke-miterlimit:10;}.cls-4{stroke-width:6px;}</style></defs><title>logo_square</title><path class="cls-1" d="M1062.38,825l-187.33-2.64,2.69-131.88c10.46-7.79,57-13.64,57-13.64l9.9-21.55L947.8,592l-1.58-16-67.64-8.76.47-28.31,113.34,3.13-4.85,25.06s28.29,35.75,83.68,45.8l52.32-70.54,39.9.57-2.69,4.56-67.86,47.12-3.16,15.65L1118.9,675l17.6,5.76L1161,667.63l-.59,34.87-49.64-1.21,15.37,23.24-7.34,14.85,41.36-.93-.34,59.19L1087.53,796S1058.7,788.35,1062.38,825Z" transform="translate(-634.54 -336.75)"/><line class="cls-2" x1="633.85" y1="432.13" x2="633.48" y2="472.35"/><line class="cls-2" x1="635.19" y1="273.62" x2="635.53" y2="315.96"/><polyline class="cls-2" points="557.77 94.22 636.96 94.96 636.57 145.01"/><line class="cls-2" x1="287.7" y1="91.7" x2="406.09" y2="92.59"/><polyline class="cls-2" points="139.81 219.06 140.74 90.38 232.18 91.22"/><polyline class="cls-2" points="331.85 588.66 136.16 586.6 138.73 357.82"/><polyline class="cls-2" points="593.91 550.04 550.11 590.42 372.06 588.52"/><line class="cls-2" x1="175.14" y1="58.08" x2="175.13" y2="87.17"/><line class="cls-2" x1="291.61" y1="58.99" x2="291.61" y2="88.08"/><line class="cls-2" x1="362.03" y1="63.18" x2="362.02" y2="92.27"/><line class="cls-2" x1="598.56" y1="61.55" x2="598.55" y2="90.64"/><line class="cls-2" x1="667.24" y1="129.1" x2="638.18" y2="127.66"/><line class="cls-2" x1="666.32" y1="293" x2="637.27" y2="291.56"/><line class="cls-2" x1="664.03" y1="453.63" x2="634.98" y2="452.19"/><line class="cls-2" x1="134.43" y1="553.6" x2="105.38" y2="552.16"/><line class="cls-2" x1="134.45" y1="479.55" x2="105.39" y2="478.11"/><line class="cls-2" x1="134.4" y1="401.27" x2="105.34" y2="399.83"/><line class="cls-2" x1="136.22" y1="126.36" x2="107.17" y2="124.92"/><line class="cls-2" x1="135.31" y1="208.45" x2="106.26" y2="207.02"/><line class="cls-2" x1="178.98" y1="590.81" x2="178.98" y2="619.9"/><line class="cls-2" x1="277.58" y1="590.14" x2="277.57" y2="619.23"/><line class="cls-2" x1="386.59" y1="589.28" x2="386.59" y2="618.37"/><line class="cls-2" x1="506.39" y1="593.28" x2="506.38" y2="622.37"/><path class="cls-2" d="M884,778.68c-1.15,1.51-14.81,15.93-14.81,15.93l-43-6.05.43-30.12-19.48-1.3-5.26-16.22" transform="translate(-634.54 -336.75)"/><polyline class="cls-2" points="186.12 495.34 206.91 485.09 209.97 455.15"/><polyline class="cls-2" points="335.63 505.87 335.1 521.7 351.91 531.29 341.62 550.7 332.62 587.65"/><polyline class="cls-2" points="371.44 587.25 354.18 560.53 352.46 533.62"/><path class="cls-2" d="M867.24,428.47c2,10.19,7.29,25.35,7.29,25.35l12.4,4.53,4,19.31,18,8.08,14.91,38L925.15,472l-17.9-9.13,1.23-18.43,12-14" transform="translate(-634.54 -336.75)"/><polygon class="cls-3" points="579.96 332.34 560.01 345.81 557.76 363.65 572.37 366.74 579.1 376.71 576.99 392.44 571.24 399.46 553.12 401.42 562.81 414.76 554.45 429.01 572.98 436.6 605.35 411.26 601 397.22 623.26 380.72 591.95 374.4 595.61 351.37 579.96 332.34"/><path class="cls-2" d="M743.69,688.34C766.55,694,899,696,929,676.15S946.29,575,946.29,575L758.15,554a34.72,34.72,0,0,0-20.59,11.6C728.67,576,642,696.67,639.85,719c-4.6,47.06,42.73,163.48,97.52,258.35,9.15,15.84,60.92,69.24,79.87,71.88s125.06,9.73,134.85,6.29,44.17-27.11,48.53-30.91" transform="translate(-634.54 -336.75)"/><path class="cls-2" d="M922.53,574.45l-7,67.32s-4.45,5.17-15.51,7.16-58.68-1.19-58.68-1.19l7.91-77.35" transform="translate(-634.54 -336.75)"/><path class="cls-2" d="M991,1032s55.68,18.89,71.91,21.34,53.69-6,70-25.38,40.1-68.36,43.47-98.2" transform="translate(-634.54 -336.75)"/><path class="cls-2" d="M1096.27,350.54s-92.38,115.24-108.73,216.62c0,0,26.33,34.73,84.36,45.45,0,0,104.78-136.46,123.84-196.67S1111.6,325.6,1096.27,350.54Z" transform="translate(-634.54 -336.75)"/><path class="cls-2" d="M1066.48,806.91s-4.43,55.08.46,63.61,132.5,14.48,164.32,15.09c28.66.55,40.09-6.88,44.9-17.49s13.34-56.49-24.66-60.4-148.21-15.84-166.26-11.58S1066.48,806.91,1066.48,806.91Z" transform="translate(-634.54 -336.75)"/><path class="cls-2" d="M1084.55,811.58s8.16,21,2.17,49.33l54.31,5s18-23.39,2-50.42Z" transform="translate(-634.54 -336.75)"/><path class="cls-2" d="M1103,580.18c-4.16,1.66-11.28,5.6-12.45,17.5-3.31,33.63,30.69,77.51,34.32,79.17s9.25,4.72,15,1,208.36-111,208.36-111,24.13-13.41,25-25.66-18.58-69.56-46.78-76.91S1103,580.18,1103,580.18Z" transform="translate(-634.54 -336.75)"/><path class="cls-2" d="M1188.23,737.68l8.49,15.38-7.38,15.37c-.1,1.58,19.37,5,26.17,5.45s148.91-20.09,165.42-42.22-3.16-75.36-6.87-81.07-11.79-7.62-24.21-5.72-131,15-136.82,22.54a35.19,35.19,0,0,0-1.67,5.09l-15.78,11.24L1193.13,700" transform="translate(-634.54 -336.75)"/><polyline class="cls-2" points="578.45 331.75 596.13 353.43 589.24 374.83 623.06 379.83 601.38 397.51 603.19 411.29 574.17 434.56"/><path class="cls-2" d="M1111,702.67l96.47.86s13,13.47-.54,31.7l-91.83,5,11.09-15.66Z" transform="translate(-634.54 -336.75)"/><path class="cls-2" d="M1029.4,512.75c-2.72.22-18.24,48-18.24,48s39.08,8.08,55.88,29.09l32.84-41.53S1076.1,509.05,1029.4,512.75Z" transform="translate(-634.54 -336.75)"/><path class="cls-2" d="M1110.54,607l44.53-32.55s45.21,27.8,32.06,61.08l-44.08,25.74S1130,622,1110.54,607Z" transform="translate(-634.54 -336.75)"/><line class="cls-2" x1="591.11" y1="489.73" x2="589.92" y2="527.91"/><line class="cls-2" x1="610.34" y1="488.28" x2="605.16" y2="524.83"/><line class="cls-2" x1="634.53" y1="187.94" x2="657.92" y2="226.4"/><path class="cls-2" d="M1293.66,504.48c-.19,2.72,34.62,54.23,34.62,54.23" transform="translate(-634.54 -336.75)"/><line class="cls-2" x1="463.8" y1="84.97" x2="513.31" y2="100.58"/><line class="cls-4" x1="475.41" y1="54.32" x2="529.91" y2="77.1"/><line class="cls-2" x1="680.47" y1="338.58" x2="674.02" y2="394.17"/><line class="cls-2" x1="651.72" y1="359.88" x2="651.17" y2="388.54"/></svg>